<mxfile host="app.diagrams.net" agent="Mozilla/5.0 (Windows NT 10.0; Win64; x64) AppleWebKit/537.36 (KHTML, like Gecko) Chrome/133.0.0.0 Safari/537.36" version="26.0.16">
  <diagram name="第 1 页" id="9NQ9gTxpdvaR9RdI7vYj">
    <mxGraphModel dx="2649" dy="3001" grid="1" gridSize="10" guides="1" tooltips="1" connect="1" arrows="1" fold="1" page="1" pageScale="1" pageWidth="827" pageHeight="1169" math="1" shadow="0">
      <root>
        <mxCell id="0" />
        <mxCell id="1" parent="0" />
        <mxCell id="Zl_6zX65lW_YbLj7B-Cz-1" value="" style="rounded=0;whiteSpace=wrap;html=1;aspect=fixed;strokeWidth=0.5;strokeColor=#828282;fillColor=light-dark(#fef3eb, #ededed);fontSize=15;" vertex="1" parent="1">
          <mxGeometry x="-1315.21" y="-1237.26" width="15.713911840580256" height="15.71" as="geometry" />
        </mxCell>
        <mxCell id="Zl_6zX65lW_YbLj7B-Cz-2" value="" style="rounded=0;whiteSpace=wrap;html=1;aspect=fixed;strokeWidth=0.5;strokeColor=#828282;fillColor=light-dark(#f8cbad, #ededed);container=0;fontSize=15;" vertex="1" parent="1">
          <mxGeometry x="-1330.9785714285715" y="-1237.26" width="15.713911840580256" height="15.713911840580256" as="geometry" />
        </mxCell>
        <mxCell id="Zl_6zX65lW_YbLj7B-Cz-3" value="" style="endArrow=block;html=1;rounded=0;endFill=1;exitX=0.5;exitY=0;exitDx=0;exitDy=0;fontSize=15;" edge="1" parent="1" source="Zl_6zX65lW_YbLj7B-Cz-150">
          <mxGeometry width="50" height="50" relative="1" as="geometry">
            <mxPoint x="-556.78" y="-530" as="sourcePoint" />
            <mxPoint x="-1266.78" y="-480" as="targetPoint" />
          </mxGeometry>
        </mxCell>
        <mxCell id="Zl_6zX65lW_YbLj7B-Cz-4" value="Cosine Similarity" style="rounded=1;whiteSpace=wrap;html=1;fontSize=15;" vertex="1" parent="1">
          <mxGeometry x="-1582.25" y="-406.95" width="117" height="45" as="geometry" />
        </mxCell>
        <mxCell id="Zl_6zX65lW_YbLj7B-Cz-5" value="" style="shape=image;verticalLabelPosition=bottom;labelBackgroundColor=default;verticalAlign=top;aspect=fixed;imageAspect=0;image=data:image/jpeg,/9j/4AAQSkZJRgABAQAAAQABAAD/2wBDAAgGBgcGBQgHBwcJCQgKDBQNDAsLDBkSEw8UHRofHh0aHBwgJC4nICIsIxwcKDcpLDAxNDQ0Hyc5PTgyPC4zNDL/2wBDAQkJCQwLDBgNDRgyIRwhMjIyMjIyMjIyMjIyMjIyMjIyMjIyMjIyMjIyMjIyMjIyMjIyMjIyMjIyMjIyMjIyMjL/wAARCABuAG4DASIAAhEBAxEB/8QAHwAAAQUBAQEBAQEAAAAAAAAAAAECAwQFBgcICQoL/8QAtRAAAgEDAwIEAwUFBAQAAAF9AQIDAAQRBRIhMUEGE1FhByJxFDKBkaEII0KxwRVS0fAkM2JyggkKFhcYGRolJicoKSo0NTY3ODk6Q0RFRkdISUpTVFVWV1hZWmNkZWZnaGlqc3R1dnd4eXqDhIWGh4iJipKTlJWWl5iZmqKjpKWmp6ipqrKztLW2t7i5usLDxMXGx8jJytLT1NXW19jZ2uHi4+Tl5ufo6erx8vP09fb3+Pn6/8QAHwEAAwEBAQEBAQEBAQAAAAAAAAECAwQFBgcICQoL/8QAtREAAgECBAQDBAcFBAQAAQJ3AAECAxEEBSExBhJBUQdhcRMiMoEIFEKRobHBCSMzUvAVYnLRChYkNOEl8RcYGRomJygpKjU2Nzg5OkNERUZHSElKU1RVVldYWVpjZGVmZ2hpanN0dXZ3eHl6goOEhYaHiImKkpOUlZaXmJmaoqOkpaanqKmqsrO0tba3uLm6wsPExcbHyMnK0tPU1dbX2Nna4uPk5ebn6Onq8vP09fb3+Pn6/9oADAMBAAIRAxEAPwC4Rt600g9vyp/bPrTCeMDr616tjEZ65phPHFOckA+vpTDzgd6BCE8ZphIHenYGcZHvzioJJ4oIjJLIsUYGd7naDT0W41qP5OemPU1znizXF0zTvIhfF3cLhcHBRD1b8s49OtQal46srcOliklzKOUmPChu4Nef3VzNeXLzzyNJJITuZj29B6CuerWSVkWkRKecelem/C8eba3sY6iZePqv/wBavMccjmvR/hPcBdavLQ9ZIRIPqp/+vXC1c0judrr/AIea9gE0Kjzo1+U/3h6VyMcTZMbLtZTtII5FexJArIARx2+lYmteEor4edbjZMB97oD9axlDsdVKpyux5y1r8u4ffHp2pY0k5y3HvWtJaTWchiuIdjdMtwD9KhEBGeF+jVjdrRnXaMlc3/T2pjYHFOz/ADqteXdtYRGa9nSCMAkFjywHXA6mvoOZLc8Ow5sdTgenvUU8ywRmWV0jVVLFnOOB/OuR1Xx4qZTSYs4zm4lHAPsO9cdf6le6i+bu4klwSQrH5QfUCsp11ErlO01bxxa24aLTV+0zAt++dcIuMFSB3zzXE6lqd5qkrS3dw0oJJCH7i+wFVeQuMcd6O/p3rmlVci0kRknI56dxTccY9KkxkCkIyKxGM710ngnURpvi7T5yxCPIIXPs/H5dDXOdKnjO0hlYgjkEHH+ewpgtz6ugAKgcfhVtF6gjI9DWV4c1BdW0Gw1Bcf6RArk4wN2PmA+hBraTrWZqVbrTLe+jMc8CyD1PUfSuWvvBl3DIG0h4ZUPBiumxt9wefyruADTigYY5pSipGkKjifNOpeP7+VtunJ9jRWyrkZceoNcvc3U92+65mklbJILHO3PXb6VF3yOT70YPfrXTKbluclkNJyck889vWkJJzTse1JjFQMSkb604dKaeWpANI6UgFP60mOM0DG4zmpF7Dp7imj0p3U8dqEB718H9Q+2eE5LNmZns52Taf7rfMMfqK9GXnB/GvEfgtemPXNQst5/fW4kX2KtjI/76/SvcFAHTpUtGiehItThRjPrUGDViL7tShnxqADzS4pBxj3pSeOOlamInWjHSjr0pSOhoGMxxTQOSakPQ4poB54pANxSU+jHNAhoFA4px60nGaYzrvhtfnT/HWlsGwssjQnPT5125+gOK+llHGegr5Gsbk2l1BcDOIZBJx14IJ/lX1tbSi4gjmC4WVVcD0DDP9aTLiTYqZMgfLyajHQfSkkuBbAMPvN0+lQij47FAGOlL0GKOa0MQP0puadTTQMU/dIHFQrJg7H4J71Lx+NMdAy4I/GkA7IxwKBxmoULo4B5WrAHGaYhD0plPamdaBkiHpwCea+nPh7fC/wDBGkTBmciHyGZjkl0Yqa+Yk/WvePgvqBn8NXdkzgvbXJKoP4UcAj/x4MaTKienjpnt0/CowFmdlkHyqflqZefxp0kQ4ZeKlIs+NuDQfrRihjzwKsxE70h6UtAPFACdKMHmlFIT6UAJwT06UoxQOBQAQaADGec0w8Zp5PJphxyCaBjkPevUvgrfeV4kvLE8C5t9647shH8gT+deWL6Cuu+HOoDTfH2jzu21Gm8lz7ONv88UmNbn1BCAq5I+lSgdjUaccenWnHjvSKufGdFFHaqMxv3valoFHegYYxTVIIJ96cTUWdsxA6GgRIeDRzSgZAFJ260DQn1prU7PGaa3f2oAQYz71btLl7S5iuY/vwusq/7ykEfqBVMHBqeP17elAH2HZ3Md3bQ3MTh45o1kDDocjOas1yXw5vHvfh9okkoAZYDAMekbMgP5IK6w8HHpUln/2Q==;fontSize=15;" vertex="1" parent="1">
          <mxGeometry x="-1393.74" y="-1337.52" width="15" height="15" as="geometry" />
        </mxCell>
        <mxCell id="Zl_6zX65lW_YbLj7B-Cz-6" value="" style="shape=image;verticalLabelPosition=bottom;labelBackgroundColor=default;verticalAlign=top;aspect=fixed;imageAspect=0;image=data:image/jpeg,/9j/4AAQSkZJRgABAQAAAQABAAD/2wBDAAgGBgcGBQgHBwcJCQgKDBQNDAsLDBkSEw8UHRofHh0aHBwgJC4nICIsIxwcKDcpLDAxNDQ0Hyc5PTgyPC4zNDL/2wBDAQkJCQwLDBgNDRgyIRwhMjIyMjIyMjIyMjIyMjIyMjIyMjIyMjIyMjIyMjIyMjIyMjIyMjIyMjIyMjIyMjIyMjL/wAARCABuAG4DASIAAhEBAxEB/8QAHwAAAQUBAQEBAQEAAAAAAAAAAAECAwQFBgcICQoL/8QAtRAAAgEDAwIEAwUFBAQAAAF9AQIDAAQRBRIhMUEGE1FhByJxFDKBkaEII0KxwRVS0fAkM2JyggkKFhcYGRolJicoKSo0NTY3ODk6Q0RFRkdISUpTVFVWV1hZWmNkZWZnaGlqc3R1dnd4eXqDhIWGh4iJipKTlJWWl5iZmqKjpKWmp6ipqrKztLW2t7i5usLDxMXGx8jJytLT1NXW19jZ2uHi4+Tl5ufo6erx8vP09fb3+Pn6/8QAHwEAAwEBAQEBAQEBAQAAAAAAAAECAwQFBgcICQoL/8QAtREAAgECBAQDBAcFBAQAAQJ3AAECAxEEBSExBhJBUQdhcRMiMoEIFEKRobHBCSMzUvAVYnLRChYkNOEl8RcYGRomJygpKjU2Nzg5OkNERUZHSElKU1RVVldYWVpjZGVmZ2hpanN0dXZ3eHl6goOEhYaHiImKkpOUlZaXmJmaoqOkpaanqKmqsrO0tba3uLm6wsPExcbHyMnK0tPU1dbX2Nna4uPk5ebn6Onq8vP09fb3+Pn6/9oADAMBAAIRAxEAPwCnHo+oW8oIl3DoM1cgin83ZJtB710whXacj6VTNukpeTGCD19a8tyZ9C72tcqpZxmdJCgB5zVu4OwEDG3FRysAuQO4IFU7i4OSM8ZqN2TsVrohUbHXNUtH17+y/FloFnWJXRkkYjOFaq+pX6QozFvlAya8xvNRuJtSmuRIybuBg44zxXVSjqceIqJKx3vxD8QT6pqkGnCcSW9nvPTne/XJ71j6VDhGHUkE5rBtzLITLJIzSORksev+RXT6MhaOR/4QMCtZ6I5oGkoCLAo6CMn9BXLX/wDq5D/t/nzXUTkrc7BxsiI/z+VcxdEfY7gtzj5h+dTTQTOZlOZHPqTTccUHliTzmk713x2ON7iHikpTzSUxH0kl1975sjGBioZbgpDzwOtcnBrihRufH41Jda2rx7EJPFeO6dj6JyTNY3oJwTwOlUrq5CocdMVix3spkJP3aspuvJgo5UcmiMbGbbMjxAWGiz3DHBchR9K4bB3AkZ57/Wu+8c4g0i3t14LP/KuHtyGAyK6aW1zgrr37Mt2iFjuPRRxXbaLbFLHLdZOfwrmrCxL3MMIPLHJHtXazBbW0wv8ACu0VNSXQmmrGbK6vdzP/AAjIrnb6MpY3PH8AFbMshigLHu6rWfq4ItZffAApwdhTZxRPApucdaUfypD3zXorY5HuJRR2o5PSkxHoNva+aCf4vTv+VaFnb5QZHIPNaK2fkzpKqDaTzVmayKSMUwFccV5Dke8olGWKNV6Dj9a0dLtNo3FR83PXtVeG1MkoyCQvWtyGIRRgEYwO1F9ClE87+IkxN1ZwDPG5vpzXOaXbs0oZkJXsK7DxXYf2lqSt1RVxn8aj0+ztbQKWbcw7CuiEkoWPOqRbqXLmjaebdTczH52+77Cl1G5D/IOfT61LNdAR8cDHyisiS9j8wkEM2OMetZpXeo7pIfc42RxDkr87e5q1baTJqtw0C9fLY8+uMViafI88siMSSXGK7K3uDomhXWrkdGCL64q0tSJbHlmr6Ld6LdGC6XB7Ed6zcHmt7xH4kl8QzrJImzA61hZFd8L21OOW43HFG2lakzVMD6AMIeJRtw4FCxsECOnOanICkMD9ae0iyLnJ5HNeEfRWKwjVWG0cA/nVfU7k28DMDjjtWgqDHHLVXuLNJFw4yx7U0HQ4a6udzF8goTyM9KpNqUMJYLtGPXrWh4k0B7eCa4gbbgEk54xXAF3cZZsk+veu7D0XU2PNxM/ZyOjutTa4QiNv/rVHIgWGO4X+MYOPWsa2uvKkG8HB61pLdJc2jRr91SHGK1qUZQdrHOp8yua+meXbxyXLkAFs5PtS3PiVb3wdf2rEBxN8o9sj/GuevdRaSH7MmQgU8Vj722lc8Hr78ilCHVkuelhAu7tmk71oabbxyW93K7cKmFB9az+9dEWYsDSUE0Y96oD6D+zjbw55ojtCw5k4P6VcltdgylVo8pKQRweo9fpXhH0pYREiGMHPc0Ku6QADipYxlcjJ9KXO1QeMk4+tIhtIzdRsluEW3OR5rbCwHIBPX8smvDZ41juZUXlFkIUnuAcZr6DmAghaZgfN2lIU7g4xn6da8N8QWwttcuIgMBSMV7WV29pY8nGy5lcymU81LBL5RJPcEfhTTmmYr3atGMtzzlNoa5LOW71C0NT8YpK55YSNtCue5DHvBK5IU8kCm9zVjA7U0oCpAFc8sJOO2ocxXJ5pc09osEUwqR2rnlCUd0Unc+mpAw7VCIGkOQuehJHbPpVqdmkQBQIyrZ3CktWnt/McFS8pLN6D0wK8Gy7nvc8rbE0FhK0QkwFjzgk9uapXkAkZ4Y/3gJQiQ/w464+tXDJK0ZSSZypOdo6daTb8vAA6YA4ocorYjllJ+8UmiJVt7FmK4Zz2+leLeLht8RXOcDOMV7jNgRt6YrxDxkQfEU3A4UV6mUvmxGpy41KNLQ5uWQqxGevQ1F537z73FWWjVx9Kh8oYxt5r3q1Gq53izyk0HnrnqKTzR6ijyRn7opfJXHTmo9lX7lXQvmIRyRTWlGOCKBCvcU7ylPQChU6/cLob5yhSeppCwJziniNfSl2elDoVHuw5kj6PEoORn/CjzW5PH4UwJvHofWpBEAcZr42x9K0NE5GAOop/m7x1NO8nHHGMUwrxuXgUvd7ktDbpsWzN14rwnxFP52uXj5yofaD9BXrXi3VTo+iPMilpGHyegrxWV2kkMjHLNyfrX0WS0vfc2eXj5q3Khgznig8jI60ik8+1P9xX0y2PIGkEcU3sc9afkqeKM9j3qWihhAxzSYxTiAeKQ9z7VDQ0xOv1pRQBQfalYZ//2Q==;fontSize=15;" vertex="1" parent="1">
          <mxGeometry x="-1345.74" y="-1337.52" width="15" height="15" as="geometry" />
        </mxCell>
        <mxCell id="Zl_6zX65lW_YbLj7B-Cz-7" value="" style="shape=image;verticalLabelPosition=bottom;labelBackgroundColor=default;verticalAlign=top;aspect=fixed;imageAspect=0;image=data:image/jpeg,/9j/4AAQSkZJRgABAQAAAQABAAD/2wBDAAgGBgcGBQgHBwcJCQgKDBQNDAsLDBkSEw8UHRofHh0aHBwgJC4nICIsIxwcKDcpLDAxNDQ0Hyc5PTgyPC4zNDL/2wBDAQkJCQwLDBgNDRgyIRwhMjIyMjIyMjIyMjIyMjIyMjIyMjIyMjIyMjIyMjIyMjIyMjIyMjIyMjIyMjIyMjIyMjL/wAARCABuAG4DASIAAhEBAxEB/8QAHwAAAQUBAQEBAQEAAAAAAAAAAAECAwQFBgcICQoL/8QAtRAAAgEDAwIEAwUFBAQAAAF9AQIDAAQRBRIhMUEGE1FhByJxFDKBkaEII0KxwRVS0fAkM2JyggkKFhcYGRolJicoKSo0NTY3ODk6Q0RFRkdISUpTVFVWV1hZWmNkZWZnaGlqc3R1dnd4eXqDhIWGh4iJipKTlJWWl5iZmqKjpKWmp6ipqrKztLW2t7i5usLDxMXGx8jJytLT1NXW19jZ2uHi4+Tl5ufo6erx8vP09fb3+Pn6/8QAHwEAAwEBAQEBAQEBAQAAAAAAAAECAwQFBgcICQoL/8QAtREAAgECBAQDBAcFBAQAAQJ3AAECAxEEBSExBhJBUQdhcRMiMoEIFEKRobHBCSMzUvAVYnLRChYkNOEl8RcYGRomJygpKjU2Nzg5OkNERUZHSElKU1RVVldYWVpjZGVmZ2hpanN0dXZ3eHl6goOEhYaHiImKkpOUlZaXmJmaoqOkpaanqKmqsrO0tba3uLm6wsPExcbHyMnK0tPU1dbX2Nna4uPk5ebn6Onq8vP09fb3+Pn6/9oADAMBAAIRAxEAPwDmyQTk89qax/dnHNKT2/CkP3DjpXrdTLocPqQJvH+tVOauan/x/SfWqfeulLQgM4pM4p1N70nohjgR3qaEfMDVcdaswfe6VrS3FJaG1bAC1YjkY4rn5CBK3rurobVdtq49q5+X/XP9a6sT8MSafUbnilXqKTqDSr1rxsX8RvHYrXA/fgeop3QCkmGZxSk5NeaWelHj3qNj8jemOKc3HemvkIwHp1r1LGTOK1I5vH5HWqdW9SP+luDng1T9K6IEi55o4oNJVNoBaswD5qripoWwwxVUtyZG/bg/ZX+lc5NxO2Oma6O2INo2R2rnJiBPJj1rtxPwomG40HmnD71NycdKcD39a8PFL3joiQSD/SPwo/iNOl/1uabXnlHoxOSccjtTW5U5yQBSk5zyQKbnCnk9OnpXpkHF6ic3bkdz3qp3NW9Q5vHz61V7mumOxA3vS0Z5oosgFWp4QQwx61XHSp4c7sjp2rSnuKRv2p/0Z65yU5nf6101pk2j8dq5qc4nfA712Yn4YkQ6jQPyoHWjHFAI3DNeJiviOiOwyX79MPAFPkO6Q4FREYA6mvP0KPRm+lNb7hOe1KTxyMimsflPHbNekZo4zUBm8fPrVXOKt6jxdv8AWqlbp6EITGTS4pKB1pjFHFWIMDviq461PDndzWtLcmRv2v8Ax6seornZ8faHwcc10ln/AMezeuOK5yfAuZcjvXbiV7sSIbsYDjvR0OaTjritTStJl1CVSRtj4zXhY2SizppxbINN0i41WfZGpCdS3pXYWvhextowJR5rnrWtbxQafbeXAAqjgsO9RHVLZeGJzXhVK127HbClyq7M7nPHWmtna474pT9M0x+UYDjivfRwHH6gT9rf0zxVUkdqs33N04z3qr1roSEFFFLSegCgVNDwwqAdanh+8K3pboiR0NlzbsB021zk4zcyf71dDZEfZ2+lc/MN90wAOSciuzFNKCbIgmx9pbNczqgXqcGvRdJ0wxWwUfIgHzMehrG8OaWkcfnS4Cjkk9zW/dXuY+pWJRwBXx+PxHtJtRPVoU7R1JZY7ZCMZfHdulVpbm0bosIGe9c5qOqyzkxxEgDkEd6yVuZVY+YHxjjiuJU2auSvY6bpx3qOT7jH1FPJ5+lRzEiM/Svo0eYcfff8fLEdzVdanvDm5YjuarnrXQmJbCsKSlxkijoetGohRViEjPNVxyanjGX64Na0txS2Ny1/1DADotZ9hAbjVAPVq0LMDyG57UukL5dxLN3JwKea1OTD+oYZXmdPAu90giyFTjj+I+tUdSYzXBtIidqnJ9zWnZEQW007cbFyD6msto2jt97cSy8+4B5r45JuWp67SSKsVpbxykAF2HBap/sCTAEKTxVuysmkCKq8nqa6a10yKOL5kyac6qjoVChzanIHIOBUFxwh9fT0qfqc9zVW5JCNX0aPJOUvDm5c+tVu9WbwYuGqvXQSLnigGkopAOFTwjkGoAasQD5s1tT3JlsbVsSIZcdduau6dFyoPTcSap2p2wE1q6OA8ZJ75rjzup7sIG+DjqaxjMlkIoyfncZ+mar3SGW/MK8qvGfartsNvHYHilsIBJdSSE85NfL81kerCPMzR021EagAcmtyKPA6DPeqVsmADWnbqCSTXPLXU7ForI//2Q==;fontSize=15;" vertex="1" parent="1">
          <mxGeometry x="-1361.74" y="-1337.52" width="15" height="15" as="geometry" />
        </mxCell>
        <mxCell id="Zl_6zX65lW_YbLj7B-Cz-8" value="" style="shape=image;verticalLabelPosition=bottom;labelBackgroundColor=default;verticalAlign=top;aspect=fixed;imageAspect=0;image=data:image/jpeg,/9j/4AAQSkZJRgABAQAAAQABAAD/2wBDAAgGBgcGBQgHBwcJCQgKDBQNDAsLDBkSEw8UHRofHh0aHBwgJC4nICIsIxwcKDcpLDAxNDQ0Hyc5PTgyPC4zNDL/2wBDAQkJCQwLDBgNDRgyIRwhMjIyMjIyMjIyMjIyMjIyMjIyMjIyMjIyMjIyMjIyMjIyMjIyMjIyMjIyMjIyMjIyMjL/wAARCABuAG4DASIAAhEBAxEB/8QAHwAAAQUBAQEBAQEAAAAAAAAAAAECAwQFBgcICQoL/8QAtRAAAgEDAwIEAwUFBAQAAAF9AQIDAAQRBRIhMUEGE1FhByJxFDKBkaEII0KxwRVS0fAkM2JyggkKFhcYGRolJicoKSo0NTY3ODk6Q0RFRkdISUpTVFVWV1hZWmNkZWZnaGlqc3R1dnd4eXqDhIWGh4iJipKTlJWWl5iZmqKjpKWmp6ipqrKztLW2t7i5usLDxMXGx8jJytLT1NXW19jZ2uHi4+Tl5ufo6erx8vP09fb3+Pn6/8QAHwEAAwEBAQEBAQEBAQAAAAAAAAECAwQFBgcICQoL/8QAtREAAgECBAQDBAcFBAQAAQJ3AAECAxEEBSExBhJBUQdhcRMiMoEIFEKRobHBCSMzUvAVYnLRChYkNOEl8RcYGRomJygpKjU2Nzg5OkNERUZHSElKU1RVVldYWVpjZGVmZ2hpanN0dXZ3eHl6goOEhYaHiImKkpOUlZaXmJmaoqOkpaanqKmqsrO0tba3uLm6wsPExcbHyMnK0tPU1dbX2Nna4uPk5ebn6Onq8vP09fb3+Pn6/9oADAMBAAIRAxEAPwDEjsbiG7zJGUG3emR1FdzoEiyoc4Wql9AnnbdxdUwlL4cbypJkI53nrXnSZ9BBaM07m0EjSoyc5xk9ge4rBvvCNtdwyRNJIX3Z343D8vSuqnIE6knhhg09oCh3xNweuKUHbUmULaHO6D4Ti0y0ZIssXO5nI2/kK6WG2SLCgD2qaOTev7w5YDHSkJAJUdqbnchQexmaoiiWFsfecA/jXnHiFdniC+yAMyk/nzXoWryBkzkgqc1wHidg2uzvjAcK35jNd2XP94cuOVqZj57AVG2c5qQ5C9KYxB/vZ9cV7R5LI+S3Io78GlI6Z6etN4B6ZAoETRnP0FT5AHTGe/rUCdM9vSpR045pDPRrqN4EOSNxJJ+tZ1szR3WRuw3TFa2r4t7YyMOD61zUd263Cq6bQ3Q5r5Zq59VFI7dV8y23EjKgVLbXMYIjc4J5AFVtOYtHtC7sikeIGUkEg/qMUoockmajKTyB1qvMSGzyKZZ3ySKVJyw4OadcHeCQTwKZHLYxLol5WVjnAJrjPEozq7E/88o/zxXZlS7OxxyCK4zxCwOojjJEa5/Wu7AfxfkcGO1pmQecjNQknBqQnjIGKjY5OK9xHijc8UDmk5ANJknGabAmTipR7VEhznjipOQvBqQPRPEt0mIYSchnAxWZqMMf2NXXhoyPy/yKg10S3OZwCTE2QBXM6hq2ozFIbSPAP3i4NfMpXPqZy5UeiaRqqeQDG2SBz9ah1HWUhaIknzJGKqB1JriNI1WSLdG6lZhwV/vfSuxsNNErx3E4JkADKCPuE0+WxPOmrk+6S3uYy/3HwT7GthZt0QUnGRmoTAksQXHJGcntUefLTaedvSoZpdNWGEj96Mcf41wGuMzatJu4woFd8TgyH1UVwGtnOqSkei135ev3p5eP+Azic8VGWzyRTnOCcUwknAr2zyBrHJ+lIN2MilJwc00HP50MCZCenapM56VCnFTAg1Iz0GSFWtQmTvPc+pqtBZLJ0TPJwfyq83l/xnncSKr212onXBznhq+ai7H0spcxZGj2tshby1ZyeG281pIu2JduCMc0okSeP5nVGOcA1WluoIkOyVdwGCCcZqm7mfKy6HUAZIyeTVWXBYEDqazvPaZ8q25e5HFXbcmRNxP0/Cs5FRfKNbhWz1K157rbD+1pgO2B+lehPhCPQ5yf8/WvNtUk36ndE85cgV6GWr32zizB+6iszYHT8KjYk47UrNk8dqafWvaPHYhOcCgfTNJR2yOtJjHofbJ+tSKxXOOhqFeSPepM1IHf6hcEpgAKQMgn0rBk1H7NMEjUzSsPljTljW9qOmfbD5ZnkjjwclMc+/NZFr4Z+yXKzQTnIJ2En5sH1PWvmVY+k1exnyP4kuZN48u1jKAgE5YAnFPPh8bWe81CeWUh13I2MHHBAFdTb6ZDHGPPnY4GBjmtK3+wwZRYdxA4ZhnmndIfJJrc5Xwx4cu9gl1Ce4wDlYycf57fnXYxKIwBjnoKes4fHB9qazkBiQBg8VDldj5bFO4YKHAGcDnP515hcMXuJGHQuT+td9q12IrO4cnHykZ/SvPM5yT0r18tho2eXj5apByBgY5pjAZ4zSk4P1pCxAwa9Q81gB3zQTjgGmljt56VEZB2oAmVwDTs5HWqm/BzUpbPOaQHqU0hWVQ3XqMd6h3FF24IIOKdPErBJoic9wfWpDEWAY9PX1r5NH1ESVYyUUNw3U1ZVE25+8e9QRPucxoSx/lWrDbnyjnk4qwtcqYfKAAgUkxxEwORnoferKEMGzncvFZmr3a28TE4yR3pJXYTaict4juQlmY1zmR+h9Aa5Rn+c45HpT9Q1tNR1OWOMgxxjbGw6H1qmzlun519FgoqNI+fxU+abJfMB7kim+bgH9Kh3HoDTWb0rrOYkMnvk+lMZt3PSkzg03PoKQC7tvXO70pxkyORzURwBkmmbs96QHqMN3uizv3ZGfoa0LectAQch1bnntXHx3EkOSuMYAxWrHePjcB1ABHrXyzgfSQqXN2zdUucq5Y5yTnrWp9uZCVyvJ7HtXLQz7skZU5xkUst7sudqgkgdTRZmjmkdCLkKAScMfWoNLtjrPia3eX/AI9rQebICMhsHgfnisGS8mlk2kj5cV6B4O09bfRWuQf3lw5XPXAXgfzrSnDU5cVV93Q+dfENg+j+KtRs8bWt7ptoHoTkfoRU6OJI1kGcMM/Q+ldT8ZdPjtfFNtdxnBvbXLgesbFc/jx+VcHbXLRHkZjJORXq4epy6M8WSNI9c5FNyBkZzRkFA2Pl/Wk3cccCvRumjLUXJPWmbuDilJwKYw4470DEJOaQjoKG4OO/rTeFGKAP/9k=;fontSize=15;" vertex="1" parent="1">
          <mxGeometry x="-1409.5" y="-1337.52" width="15" height="15" as="geometry" />
        </mxCell>
        <mxCell id="Zl_6zX65lW_YbLj7B-Cz-9" value="" style="shape=image;verticalLabelPosition=bottom;labelBackgroundColor=default;verticalAlign=top;aspect=fixed;imageAspect=0;image=data:image/jpeg,/9j/4AAQSkZJRgABAQAAAQABAAD/2wBDAAgGBgcGBQgHBwcJCQgKDBQNDAsLDBkSEw8UHRofHh0aHBwgJC4nICIsIxwcKDcpLDAxNDQ0Hyc5PTgyPC4zNDL/2wBDAQkJCQwLDBgNDRgyIRwhMjIyMjIyMjIyMjIyMjIyMjIyMjIyMjIyMjIyMjIyMjIyMjIyMjIyMjIyMjIyMjIyMjL/wAARCABuAG4DASIAAhEBAxEB/8QAHwAAAQUBAQEBAQEAAAAAAAAAAAECAwQFBgcICQoL/8QAtRAAAgEDAwIEAwUFBAQAAAF9AQIDAAQRBRIhMUEGE1FhByJxFDKBkaEII0KxwRVS0fAkM2JyggkKFhcYGRolJicoKSo0NTY3ODk6Q0RFRkdISUpTVFVWV1hZWmNkZWZnaGlqc3R1dnd4eXqDhIWGh4iJipKTlJWWl5iZmqKjpKWmp6ipqrKztLW2t7i5usLDxMXGx8jJytLT1NXW19jZ2uHi4+Tl5ufo6erx8vP09fb3+Pn6/8QAHwEAAwEBAQEBAQEBAQAAAAAAAAECAwQFBgcICQoL/8QAtREAAgECBAQDBAcFBAQAAQJ3AAECAxEEBSExBhJBUQdhcRMiMoEIFEKRobHBCSMzUvAVYnLRChYkNOEl8RcYGRomJygpKjU2Nzg5OkNERUZHSElKU1RVVldYWVpjZGVmZ2hpanN0dXZ3eHl6goOEhYaHiImKkpOUlZaXmJmaoqOkpaanqKmqsrO0tba3uLm6wsPExcbHyMnK0tPU1dbX2Nna4uPk5ebn6Onq8vP09fb3+Pn6/9oADAMBAAIRAxEAPwDx33oAzS8+lJiqAUY6ig9KOMUh6UAQS9B9am7ZqCTkr9am64FIBeKjJ5IqU4AqL14phYdjjmkZR0xSjoBSHmvocM26MWzme41GCsNwwB1r1v4e6yL/AEz7BK+JrfhM/wASV5F0NaWmandabcCe0lMcgGM47elYYnDfWKTp9ehvRreznzH0AE3Nxyo6VIsG3ouc+1ePw/EnXIF2lYJMcZI5ok+JGvvjBhB9AteF/Y1Zno/X6aORznpSZOKXJHajHHXmrOABSN0pc5x601+BQBXIPmJ9atjp0qqDmYe1WM9qSAGpmacTTMjPND2AUDK0tNX5gRThz0FfRYN3oqxzT3GkDtRGSDxnNKQc8AU3Bz1rZqzuK6asSv2560oHGQQPrQh3LgfgabjHFaruiB1IM55pC3Ix0pc96+TO0Ud8Ux/uninD3prHANICuP8AWDA5qyKrof3pz6VZByKEA1qZ0p7U3HBNAgT1HSnDimJyKf17CvXy6bacDGohwFMYdxTxSMBjgV6jVzJMahwQDUjACou9TLhlzTiDRF34p/amg+gFLnIxXyh2B14prdCKXpz1pjnknFJgRxH94x/CrFV4OWY1OfagBCaQ8Kadtpr4C0wBeAB7U8dKavb6UpHIOa2w9V06kWTJXQ4Yz0pevFIO3FOH05r6WOqORqxGRg0mfl9Oae3BwaQdcUNWZQdKKU4UnOKaXx0r5M6wNRMHAJIpwJ3DPFTH5kI9qAKkIyM1YAqGHgH61OKEAvQVDIegqY81BKcOo70wJRjilxkc9KQAU7AxRcRGHKNtbkHoamGCPl/Oojhl5pFJifB5Tt7V9Fh5OMIt7HPPVkuOM45pMc5qRuQO/v60wjiut67Ga0EbBycZqPPpxS+W0TsrNuA5BptfIHYN3c5NTRk8VXbLdO1WLaJ5ImO4A+lAyIjEjAetSA1AD8+CckHrUynvTQD81WkbMwqx1FVhzP0pgWRS0h9qUdKQAvANLt3Lzzmmr0Jz0p47H0r6TCSUqUYnNPR3I0YxNhjlO3tUxGQMHFMK71wRUJka3+VuU7V0N+zfkRbmLV8qpOdv4VTzWnqMYZgy4HHNZ/lN6ivkkdrhIjDfNkdqvacyhnUrndVTyWA6irVgrRy5yDQx8kipMoWdwOPmpOnGat3sJa6LAgZqL7KQPvChMOSRGDuB56U2FfnJqx9nIz8wpUhKjqKdw5GMHNDsF4qR4mC9RUDQuecii4cjEVvmOB1qcDPHeqwhf1FSoj8cit8NinSmuxE6TaJu4zmmunmDIA69DU4gYqGyOaDbH1FfRqrTnE5VCVz/2Q==;fontSize=15;" vertex="1" parent="1">
          <mxGeometry x="-1377.74" y="-1337.52" width="15" height="15" as="geometry" />
        </mxCell>
        <mxCell id="Zl_6zX65lW_YbLj7B-Cz-10" value="" style="shape=image;verticalLabelPosition=bottom;labelBackgroundColor=default;verticalAlign=top;aspect=fixed;imageAspect=0;image=data:image/jpeg,/9j/4AAQSkZJRgABAQAAAQABAAD/2wBDAAgGBgcGBQgHBwcJCQgKDBQNDAsLDBkSEw8UHRofHh0aHBwgJC4nICIsIxwcKDcpLDAxNDQ0Hyc5PTgyPC4zNDL/2wBDAQkJCQwLDBgNDRgyIRwhMjIyMjIyMjIyMjIyMjIyMjIyMjIyMjIyMjIyMjIyMjIyMjIyMjIyMjIyMjIyMjIyMjL/wAARCABuAG4DASIAAhEBAxEB/8QAHwAAAQUBAQEBAQEAAAAAAAAAAAECAwQFBgcICQoL/8QAtRAAAgEDAwIEAwUFBAQAAAF9AQIDAAQRBRIhMUEGE1FhByJxFDKBkaEII0KxwRVS0fAkM2JyggkKFhcYGRolJicoKSo0NTY3ODk6Q0RFRkdISUpTVFVWV1hZWmNkZWZnaGlqc3R1dnd4eXqDhIWGh4iJipKTlJWWl5iZmqKjpKWmp6ipqrKztLW2t7i5usLDxMXGx8jJytLT1NXW19jZ2uHi4+Tl5ufo6erx8vP09fb3+Pn6/8QAHwEAAwEBAQEBAQEBAQAAAAAAAAECAwQFBgcICQoL/8QAtREAAgECBAQDBAcFBAQAAQJ3AAECAxEEBSExBhJBUQdhcRMiMoEIFEKRobHBCSMzUvAVYnLRChYkNOEl8RcYGRomJygpKjU2Nzg5OkNERUZHSElKU1RVVldYWVpjZGVmZ2hpanN0dXZ3eHl6goOEhYaHiImKkpOUlZaXmJmaoqOkpaanqKmqsrO0tba3uLm6wsPExcbHyMnK0tPU1dbX2Nna4uPk5ebn6Onq8vP09fb3+Pn6/9oADAMBAAIRAxEAPwDxvoeaQj3o780dveqAQGlwCc0mead2oEJgelRSjkMO1TdqawyCKABTnB7UZ45qOE4DKeo5qWgBuMDmkPA57048U3AxQAz+KpozxUTAntT4zigD6D+CuotdeD57GR9z2d2VUHoqOAyj8w5/GvSgcqD3Irwr4Iah5Wt6np7HKz2wmUdyyNz+hNe6Kdw9e9SWj41HWjrxTR+VOPAqiROc040g5BFHagQdaCcHpQKT65oAhf5JQegPWp+MYNRyDKmliYmMg9RQA7rTSKd9KTBPP6UAMJ79qVOOaCO/6UgxuwKAOw+HOoDTvH2kStnZJKYGx6OMfzr6ciGVweCvBr4/tZ3tbiK5icq8LrKjDsQf/rfrX13YXUd3ptteRpiOeJJFHXAZQallo+O6d2pg5p/UfSqJCjtmkpc460AGcikxQOtKelAhO2MVCPkl9mqb61HIuV46igCQY9KQjjihG3rkGlOaAGnP0Pemkc8d6eTxxTKAJ4iAw4785r6W+Ft//aHw60vJcvbh7Z2Y9dh4/Q/pXzNH97PrxXuXwK1ATadq2mMxLRSpcKpPChl2nH4rmkykeFrxTqYvTjmnCgkUUdTz0oFJTAXPHAowB3pBxSkZ5oAD0o44z3o70uOP5UDIk+SXHY9Kkx1pkqkqCOop6tvXd+FAhMYFNIzUhFNNAxE44712PgHxQPCusz3UnMU1uYyPfcpH/s351xo6/wA6lZVdANuVB6e9IaREPanDFMzzQKCR2aXFIG4pQcjmgBaO1FFABR3oopgGBgio0Oxyp6HpUnODTZFyu7uKAHkcUnShTvUEelBoGMHWplyBkdaixzT15FAiHuDS9qbzSjNIBQKfimA04GgBTS5pD1ooGB60oo/GgD1NMBRilHSkH0xSg4zQIjX5HZB0PIp3FJIvAYduacMMAR3oGJjmjpSkU2gCEGlzTB1p2aQh2aVW9qb2oUd6AZIDS9800U8cmga1E6nNGccZpxGDRtyM5o0HZic0o+tKFOO1KIyT1FAco0/d5qOInLL6HI+lWfKLDqKheBkkDhh6UXDlYpxTasrAWGcim/ZnJxuFDY+Rn//Z;fontSize=15;" vertex="1" parent="1">
          <mxGeometry x="-1329.74" y="-1337.52" width="15" height="15" as="geometry" />
        </mxCell>
        <mxCell id="Zl_6zX65lW_YbLj7B-Cz-11" value="Robert" style="text;html=1;align=center;verticalAlign=middle;whiteSpace=wrap;rounded=0;rotation=0;fontSize=12;labelPosition=center;verticalLabelPosition=middle;" vertex="1" parent="1">
          <mxGeometry x="-1176.74" y="-1315.83" width="28" height="16" as="geometry" />
        </mxCell>
        <mxCell id="Zl_6zX65lW_YbLj7B-Cz-12" value="Gates" style="text;html=1;align=center;verticalAlign=middle;whiteSpace=wrap;rounded=0;rotation=0;fontSize=12;labelPosition=center;verticalLabelPosition=middle;" vertex="1" parent="1">
          <mxGeometry x="-1177.74" y="-1299.83" width="28" height="16" as="geometry" />
        </mxCell>
        <mxCell id="Zl_6zX65lW_YbLj7B-Cz-13" value="says" style="text;html=1;align=center;verticalAlign=middle;whiteSpace=wrap;rounded=0;rotation=0;fontSize=12;labelPosition=center;verticalLabelPosition=middle;" vertex="1" parent="1">
          <mxGeometry x="-1180.74" y="-1283.83" width="28" height="16" as="geometry" />
        </mxCell>
        <mxCell id="Zl_6zX65lW_YbLj7B-Cz-14" value="questions" style="text;html=1;align=center;verticalAlign=middle;whiteSpace=wrap;rounded=0;rotation=0;fontSize=12;labelPosition=center;verticalLabelPosition=middle;" vertex="1" parent="1">
          <mxGeometry x="-1168.7" y="-1254.6799999999998" width="28" height="16" as="geometry" />
        </mxCell>
        <mxCell id="Zl_6zX65lW_YbLj7B-Cz-15" value="Hillary" style="text;html=1;align=center;verticalAlign=middle;whiteSpace=wrap;rounded=0;rotation=0;fontSize=12;labelPosition=center;verticalLabelPosition=middle;" vertex="1" parent="1">
          <mxGeometry x="-1177.7" y="-1236.6799999999998" width="28" height="16" as="geometry" />
        </mxCell>
        <mxCell id="Zl_6zX65lW_YbLj7B-Cz-16" value="Clinton" style="text;html=1;align=center;verticalAlign=middle;whiteSpace=wrap;rounded=0;rotation=0;fontSize=12;labelPosition=center;verticalLabelPosition=middle;" vertex="1" parent="1">
          <mxGeometry x="-1175.7" y="-1221.9099999999999" width="28" height="16" as="geometry" />
        </mxCell>
        <mxCell id="Zl_6zX65lW_YbLj7B-Cz-17" value="judgment" style="text;html=1;align=center;verticalAlign=middle;whiteSpace=wrap;rounded=0;rotation=0;fontSize=12;labelPosition=center;verticalLabelPosition=middle;" vertex="1" parent="1">
          <mxGeometry x="-1169.7" y="-1206.73" width="28" height="16" as="geometry" />
        </mxCell>
        <mxCell id="Zl_6zX65lW_YbLj7B-Cz-18" value="he" style="text;html=1;align=center;verticalAlign=middle;whiteSpace=wrap;rounded=0;rotation=0;fontSize=12;labelPosition=center;verticalLabelPosition=middle;" vertex="1" parent="1">
          <mxGeometry x="-1187.5" y="-1268.6399999999999" width="28" height="16" as="geometry" />
        </mxCell>
        <mxCell id="Zl_6zX65lW_YbLj7B-Cz-19" value="Robert" style="text;html=1;align=center;verticalAlign=middle;whiteSpace=wrap;rounded=0;rotation=-90;fontSize=12;labelPosition=center;verticalLabelPosition=middle;textDirection=rtl;" vertex="1" parent="1">
          <mxGeometry x="-1331.26" y="-1348" width="50" height="16" as="geometry" />
        </mxCell>
        <mxCell id="Zl_6zX65lW_YbLj7B-Cz-20" value="Gates" style="text;html=1;align=center;verticalAlign=middle;whiteSpace=wrap;rounded=0;rotation=-90;fontSize=12;labelPosition=center;verticalLabelPosition=middle;textDirection=rtl;" vertex="1" parent="1">
          <mxGeometry x="-1306.65" y="-1347" width="30" height="16" as="geometry" />
        </mxCell>
        <mxCell id="Zl_6zX65lW_YbLj7B-Cz-21" value="says" style="text;html=1;align=center;verticalAlign=middle;whiteSpace=wrap;rounded=0;rotation=-90;fontSize=12;labelPosition=center;verticalLabelPosition=middle;" vertex="1" parent="1">
          <mxGeometry x="-1289.93" y="-1344.52" width="28" height="16" as="geometry" />
        </mxCell>
        <mxCell id="Zl_6zX65lW_YbLj7B-Cz-22" value="questions" style="text;html=1;align=center;verticalAlign=middle;whiteSpace=wrap;rounded=0;rotation=-90;fontSize=12;labelPosition=center;verticalLabelPosition=middle;" vertex="1" parent="1">
          <mxGeometry x="-1258.6499999999999" y="-1357" width="28" height="16" as="geometry" />
        </mxCell>
        <mxCell id="Zl_6zX65lW_YbLj7B-Cz-23" value="Hillary" style="text;html=1;align=center;verticalAlign=middle;whiteSpace=wrap;rounded=0;rotation=-90;fontSize=12;labelPosition=center;verticalLabelPosition=middle;" vertex="1" parent="1">
          <mxGeometry x="-1242.78" y="-1348" width="28" height="16" as="geometry" />
        </mxCell>
        <mxCell id="Zl_6zX65lW_YbLj7B-Cz-24" value="Clinton" style="text;html=1;align=center;verticalAlign=middle;whiteSpace=wrap;rounded=0;rotation=-90;fontSize=12;labelPosition=center;verticalLabelPosition=middle;" vertex="1" parent="1">
          <mxGeometry x="-1226.5" y="-1349" width="28" height="16" as="geometry" />
        </mxCell>
        <mxCell id="Zl_6zX65lW_YbLj7B-Cz-25" value="judgement" style="text;html=1;align=center;verticalAlign=middle;whiteSpace=wrap;rounded=0;rotation=-90;fontSize=12;labelPosition=center;verticalLabelPosition=middle;" vertex="1" parent="1">
          <mxGeometry x="-1210.74" y="-1359" width="28" height="16" as="geometry" />
        </mxCell>
        <mxCell id="Zl_6zX65lW_YbLj7B-Cz-26" value="he" style="text;html=1;align=center;verticalAlign=middle;whiteSpace=wrap;rounded=0;rotation=-90;fontSize=12;labelPosition=center;verticalLabelPosition=middle;" vertex="1" parent="1">
          <mxGeometry x="-1274.74" y="-1339.1399999999999" width="28" height="16" as="geometry" />
        </mxCell>
        <mxCell id="Zl_6zX65lW_YbLj7B-Cz-27" value="" style="group;fontSize=15;" vertex="1" connectable="0" parent="1">
          <mxGeometry x="-1486.78" y="-529.0000000000001" width="139.99976208036924" height="80.24000000000001" as="geometry" />
        </mxCell>
        <mxCell id="Zl_6zX65lW_YbLj7B-Cz-28" value="" style="rounded=0;whiteSpace=wrap;html=1;aspect=fixed;strokeWidth=0.5;strokeColor=#828282;fillColor=light-dark(#FFFFFF,#EDEDED);container=0;fontSize=15;" vertex="1" parent="Zl_6zX65lW_YbLj7B-Cz-27">
          <mxGeometry x="20" width="9.999762080369253" height="9.999762080369253" as="geometry" />
        </mxCell>
        <mxCell id="Zl_6zX65lW_YbLj7B-Cz-29" value="" style="rounded=0;whiteSpace=wrap;html=1;aspect=fixed;strokeWidth=0.5;strokeColor=#828282;fillColor=light-dark(#FFFFFF,#EDEDED);container=0;fontSize=15;" vertex="1" parent="Zl_6zX65lW_YbLj7B-Cz-27">
          <mxGeometry x="30" width="9.999762080369253" height="9.999762080369253" as="geometry" />
        </mxCell>
        <mxCell id="Zl_6zX65lW_YbLj7B-Cz-30" value="" style="rounded=0;whiteSpace=wrap;html=1;aspect=fixed;strokeWidth=0.5;strokeColor=#828282;fillColor=light-dark(#FFFFFF,#EDEDED);container=0;fontSize=15;" vertex="1" parent="Zl_6zX65lW_YbLj7B-Cz-27">
          <mxGeometry x="40" width="9.999762080369253" height="9.999762080369253" as="geometry" />
        </mxCell>
        <mxCell id="Zl_6zX65lW_YbLj7B-Cz-31" value="" style="rounded=0;whiteSpace=wrap;html=1;aspect=fixed;strokeWidth=0.5;strokeColor=#828282;fillColor=light-dark(#FFFFFF,#EDEDED);container=0;fontSize=15;" vertex="1" parent="Zl_6zX65lW_YbLj7B-Cz-27">
          <mxGeometry x="80" width="9.999762080369253" height="9.999762080369253" as="geometry" />
        </mxCell>
        <mxCell id="Zl_6zX65lW_YbLj7B-Cz-32" value="" style="rounded=0;whiteSpace=wrap;html=1;aspect=fixed;strokeWidth=0.5;strokeColor=#828282;fillColor=light-dark(#FFFFFF,#EDEDED);container=0;fontSize=15;" vertex="1" parent="Zl_6zX65lW_YbLj7B-Cz-27">
          <mxGeometry x="50" width="9.999762080369253" height="9.999762080369253" as="geometry" />
        </mxCell>
        <mxCell id="Zl_6zX65lW_YbLj7B-Cz-33" value="" style="rounded=0;whiteSpace=wrap;html=1;aspect=fixed;strokeWidth=0.5;strokeColor=#828282;fillColor=light-dark(#FFFFFF,#EDEDED);container=0;fontSize=15;" vertex="1" parent="Zl_6zX65lW_YbLj7B-Cz-27">
          <mxGeometry x="60" width="9.999762080369253" height="9.999762080369253" as="geometry" />
        </mxCell>
        <mxCell id="Zl_6zX65lW_YbLj7B-Cz-34" value="" style="rounded=0;whiteSpace=wrap;html=1;aspect=fixed;strokeWidth=0.5;strokeColor=#828282;fillColor=light-dark(#FFFFFF,#EDEDED);container=0;fontSize=15;" vertex="1" parent="Zl_6zX65lW_YbLj7B-Cz-27">
          <mxGeometry x="90" width="9.999762080369253" height="9.999762080369253" as="geometry" />
        </mxCell>
        <mxCell id="Zl_6zX65lW_YbLj7B-Cz-35" value="" style="rounded=0;whiteSpace=wrap;html=1;fillColor=light-dark(#FFFFFF,#EDEDED);strokeColor=#828282;aspect=fixed;strokeWidth=0.5;container=0;fontSize=15;" vertex="1" parent="Zl_6zX65lW_YbLj7B-Cz-27">
          <mxGeometry x="70" width="9.999762080369253" height="9.999762080369253" as="geometry" />
        </mxCell>
        <mxCell id="Zl_6zX65lW_YbLj7B-Cz-36" value="" style="rounded=0;whiteSpace=wrap;html=1;aspect=fixed;strokeWidth=0.5;strokeColor=#828282;fillColor=light-dark(#FFFFFF,#EDEDED);container=0;fontSize=15;" vertex="1" parent="Zl_6zX65lW_YbLj7B-Cz-27">
          <mxGeometry x="100" width="9.999762080369253" height="9.999762080369253" as="geometry" />
        </mxCell>
        <mxCell id="Zl_6zX65lW_YbLj7B-Cz-37" value="" style="rounded=0;whiteSpace=wrap;html=1;aspect=fixed;fillColor=light-dark(#FFFFFF,#EDEDED);strokeColor=#828282;strokeWidth=0.5;container=0;fontSize=15;" vertex="1" parent="Zl_6zX65lW_YbLj7B-Cz-27">
          <mxGeometry x="10" width="9.999762080369253" height="9.999762080369253" as="geometry" />
        </mxCell>
        <mxCell id="Zl_6zX65lW_YbLj7B-Cz-38" value="" style="rounded=0;whiteSpace=wrap;html=1;aspect=fixed;strokeWidth=0.5;strokeColor=#828282;fillColor=light-dark(#FFFFFF,#EDEDED);container=0;fontSize=15;" vertex="1" parent="Zl_6zX65lW_YbLj7B-Cz-27">
          <mxGeometry width="9.999762080369253" height="9.999762080369253" as="geometry" />
        </mxCell>
        <mxCell id="Zl_6zX65lW_YbLj7B-Cz-39" value="" style="rounded=0;whiteSpace=wrap;html=1;aspect=fixed;strokeWidth=0.5;strokeColor=#828282;fillColor=light-dark(#FFFFFF,#EDEDED);container=0;fontSize=15;" vertex="1" parent="Zl_6zX65lW_YbLj7B-Cz-27">
          <mxGeometry x="110" width="9.999762080369253" height="9.999762080369253" as="geometry" />
        </mxCell>
        <mxCell id="Zl_6zX65lW_YbLj7B-Cz-40" value="" style="rounded=0;whiteSpace=wrap;html=1;aspect=fixed;strokeWidth=0.5;strokeColor=#828282;fillColor=light-dark(#FFFFFF,#EDEDED);container=0;fontSize=15;" vertex="1" parent="Zl_6zX65lW_YbLj7B-Cz-27">
          <mxGeometry x="20" y="10" width="9.999762080369253" height="9.999762080369253" as="geometry" />
        </mxCell>
        <mxCell id="Zl_6zX65lW_YbLj7B-Cz-41" value="" style="rounded=0;whiteSpace=wrap;html=1;aspect=fixed;strokeWidth=0.5;strokeColor=#828282;container=0;fontSize=15;" vertex="1" parent="Zl_6zX65lW_YbLj7B-Cz-27">
          <mxGeometry x="30" y="10" width="9.999762080369253" height="9.999762080369253" as="geometry" />
        </mxCell>
        <mxCell id="Zl_6zX65lW_YbLj7B-Cz-42" value="" style="rounded=0;whiteSpace=wrap;html=1;aspect=fixed;strokeWidth=0.5;strokeColor=#828282;fillColor=light-dark(#FFFFFF,#EDEDED);container=0;fontSize=15;" vertex="1" parent="Zl_6zX65lW_YbLj7B-Cz-27">
          <mxGeometry x="80" y="10" width="9.999762080369253" height="9.999762080369253" as="geometry" />
        </mxCell>
        <mxCell id="Zl_6zX65lW_YbLj7B-Cz-43" value="" style="rounded=0;whiteSpace=wrap;html=1;aspect=fixed;strokeWidth=0.5;strokeColor=#828282;container=0;fontSize=15;" vertex="1" parent="Zl_6zX65lW_YbLj7B-Cz-27">
          <mxGeometry x="50" y="10" width="9.999762080369253" height="9.999762080369253" as="geometry" />
        </mxCell>
        <mxCell id="Zl_6zX65lW_YbLj7B-Cz-44" value="" style="rounded=0;whiteSpace=wrap;html=1;aspect=fixed;strokeWidth=0.5;strokeColor=#828282;fillColor=light-dark(#FFFFFF,#EDEDED);container=0;fontSize=15;" vertex="1" parent="Zl_6zX65lW_YbLj7B-Cz-27">
          <mxGeometry x="60" y="10" width="9.999762080369253" height="9.999762080369253" as="geometry" />
        </mxCell>
        <mxCell id="Zl_6zX65lW_YbLj7B-Cz-45" value="" style="rounded=0;whiteSpace=wrap;html=1;aspect=fixed;strokeWidth=0.5;strokeColor=#828282;fillColor=light-dark(#FFFFFF,#EDEDED);container=0;fontSize=15;" vertex="1" parent="Zl_6zX65lW_YbLj7B-Cz-27">
          <mxGeometry x="90" y="10" width="9.999762080369253" height="9.999762080369253" as="geometry" />
        </mxCell>
        <mxCell id="Zl_6zX65lW_YbLj7B-Cz-46" value="" style="rounded=0;whiteSpace=wrap;html=1;aspect=fixed;fillColor=light-dark(#FFFFFF,#EDEDED);strokeColor=#828282;strokeWidth=0.5;container=0;fontSize=15;" vertex="1" parent="Zl_6zX65lW_YbLj7B-Cz-27">
          <mxGeometry x="10" y="10" width="9.999762080369253" height="9.999762080369253" as="geometry" />
        </mxCell>
        <mxCell id="Zl_6zX65lW_YbLj7B-Cz-47" value="" style="rounded=0;whiteSpace=wrap;html=1;aspect=fixed;strokeWidth=0.5;strokeColor=#828282;fillColor=light-dark(#FFFFFF,#EDEDED);container=0;fontSize=15;" vertex="1" parent="Zl_6zX65lW_YbLj7B-Cz-27">
          <mxGeometry y="10" width="9.999762080369253" height="9.999762080369253" as="geometry" />
        </mxCell>
        <mxCell id="Zl_6zX65lW_YbLj7B-Cz-48" value="" style="rounded=0;whiteSpace=wrap;html=1;fillColor=light-dark(#FFFFFF,#EDEDED);strokeColor=#828282;aspect=fixed;strokeWidth=0.5;container=0;fontSize=15;" vertex="1" parent="Zl_6zX65lW_YbLj7B-Cz-27">
          <mxGeometry x="70" y="20" width="9.999762080369253" height="9.999762080369253" as="geometry" />
        </mxCell>
        <mxCell id="Zl_6zX65lW_YbLj7B-Cz-49" value="" style="rounded=0;whiteSpace=wrap;html=1;aspect=fixed;fillColor=light-dark(#FFFFFF,#EDEDED);strokeColor=#828282;strokeWidth=0.5;container=0;fontSize=15;" vertex="1" parent="Zl_6zX65lW_YbLj7B-Cz-27">
          <mxGeometry x="10" y="20" width="9.999762080369253" height="9.999762080369253" as="geometry" />
        </mxCell>
        <mxCell id="Zl_6zX65lW_YbLj7B-Cz-50" value="" style="rounded=0;whiteSpace=wrap;html=1;aspect=fixed;strokeWidth=0.5;strokeColor=#828282;fillColor=light-dark(#FFFFFF,#EDEDED);container=0;fontSize=15;" vertex="1" parent="Zl_6zX65lW_YbLj7B-Cz-27">
          <mxGeometry x="100" y="30" width="9.999762080369253" height="9.999762080369253" as="geometry" />
        </mxCell>
        <mxCell id="Zl_6zX65lW_YbLj7B-Cz-51" value="" style="rounded=0;whiteSpace=wrap;html=1;aspect=fixed;strokeWidth=0.5;strokeColor=#828282;fillColor=light-dark(#FFFFFF,#EDEDED);container=0;fontSize=15;" vertex="1" parent="Zl_6zX65lW_YbLj7B-Cz-27">
          <mxGeometry x="110" y="30" width="9.999762080369253" height="9.999762080369253" as="geometry" />
        </mxCell>
        <mxCell id="Zl_6zX65lW_YbLj7B-Cz-52" value="" style="rounded=0;whiteSpace=wrap;html=1;aspect=fixed;strokeWidth=0.5;strokeColor=#828282;container=0;fillColor=light-dark(#FFFFFF,#EDEDED);fontSize=15;" vertex="1" parent="Zl_6zX65lW_YbLj7B-Cz-27">
          <mxGeometry x="60" y="40" width="9.999762080369253" height="9.999762080369253" as="geometry" />
        </mxCell>
        <mxCell id="Zl_6zX65lW_YbLj7B-Cz-53" value="" style="rounded=0;whiteSpace=wrap;html=1;aspect=fixed;strokeWidth=0.5;strokeColor=#828282;fillColor=light-dark(#FFFFFF,#EDEDED);container=0;fontSize=15;" vertex="1" parent="Zl_6zX65lW_YbLj7B-Cz-27">
          <mxGeometry x="110" y="40" width="9.999762080369253" height="9.999762080369253" as="geometry" />
        </mxCell>
        <mxCell id="Zl_6zX65lW_YbLj7B-Cz-54" value="" style="rounded=0;whiteSpace=wrap;html=1;aspect=fixed;strokeWidth=0.5;strokeColor=#828282;fillColor=light-dark(#FFFFFF,#EDEDED);container=0;fontSize=15;" vertex="1" parent="Zl_6zX65lW_YbLj7B-Cz-27">
          <mxGeometry x="120" width="9.999762080369253" height="9.999762080369253" as="geometry" />
        </mxCell>
        <mxCell id="Zl_6zX65lW_YbLj7B-Cz-55" value="" style="rounded=0;whiteSpace=wrap;html=1;aspect=fixed;strokeWidth=0.5;strokeColor=#828282;fillColor=light-dark(#FFFFFF,#EDEDED);container=0;fontSize=15;" vertex="1" parent="Zl_6zX65lW_YbLj7B-Cz-27">
          <mxGeometry x="130" width="9.999762080369253" height="9.999762080369253" as="geometry" />
        </mxCell>
        <mxCell id="Zl_6zX65lW_YbLj7B-Cz-56" value="" style="rounded=0;whiteSpace=wrap;html=1;aspect=fixed;strokeWidth=0.5;strokeColor=#828282;fillColor=light-dark(#FFFFFF,#EDEDED);container=0;fontSize=15;" vertex="1" parent="Zl_6zX65lW_YbLj7B-Cz-27">
          <mxGeometry x="120" y="10" width="9.999762080369253" height="9.999762080369253" as="geometry" />
        </mxCell>
        <mxCell id="Zl_6zX65lW_YbLj7B-Cz-57" value="" style="rounded=0;whiteSpace=wrap;html=1;aspect=fixed;strokeWidth=0.5;strokeColor=#828282;fillColor=light-dark(#FFFFFF,#EDEDED);container=0;fontSize=15;" vertex="1" parent="Zl_6zX65lW_YbLj7B-Cz-27">
          <mxGeometry x="130" y="10" width="9.999762080369253" height="9.999762080369253" as="geometry" />
        </mxCell>
        <mxCell id="Zl_6zX65lW_YbLj7B-Cz-58" value="" style="rounded=0;whiteSpace=wrap;html=1;aspect=fixed;strokeWidth=0.5;strokeColor=#828282;fillColor=light-dark(#FFFFFF,#EDEDED);container=0;fontSize=15;" vertex="1" parent="Zl_6zX65lW_YbLj7B-Cz-27">
          <mxGeometry x="120" y="20" width="9.999762080369253" height="9.999762080369253" as="geometry" />
        </mxCell>
        <mxCell id="Zl_6zX65lW_YbLj7B-Cz-59" value="" style="rounded=0;whiteSpace=wrap;html=1;aspect=fixed;strokeWidth=0.5;strokeColor=#828282;fillColor=light-dark(#FFFFFF,#EDEDED);container=0;fontSize=15;" vertex="1" parent="Zl_6zX65lW_YbLj7B-Cz-27">
          <mxGeometry x="130" y="20" width="9.999762080369253" height="9.999762080369253" as="geometry" />
        </mxCell>
        <mxCell id="Zl_6zX65lW_YbLj7B-Cz-60" value="" style="rounded=0;whiteSpace=wrap;html=1;aspect=fixed;strokeWidth=0.5;strokeColor=#828282;fillColor=light-dark(#FFFFFF,#EDEDED);container=0;fontSize=15;" vertex="1" parent="Zl_6zX65lW_YbLj7B-Cz-27">
          <mxGeometry x="120" y="30" width="9.999762080369253" height="9.999762080369253" as="geometry" />
        </mxCell>
        <mxCell id="Zl_6zX65lW_YbLj7B-Cz-61" value="" style="rounded=0;whiteSpace=wrap;html=1;aspect=fixed;strokeWidth=0.5;strokeColor=#828282;fillColor=light-dark(#FFFFFF,#EDEDED);container=0;fontSize=15;" vertex="1" parent="Zl_6zX65lW_YbLj7B-Cz-27">
          <mxGeometry x="130" y="30" width="9.999762080369253" height="9.999762080369253" as="geometry" />
        </mxCell>
        <mxCell id="Zl_6zX65lW_YbLj7B-Cz-62" value="" style="rounded=0;whiteSpace=wrap;html=1;aspect=fixed;strokeWidth=0.5;strokeColor=#828282;fillColor=light-dark(#FFFFFF,#EDEDED);container=0;fontSize=15;" vertex="1" parent="Zl_6zX65lW_YbLj7B-Cz-27">
          <mxGeometry x="120" y="40" width="9.999762080369253" height="9.999762080369253" as="geometry" />
        </mxCell>
        <mxCell id="Zl_6zX65lW_YbLj7B-Cz-63" value="" style="rounded=0;whiteSpace=wrap;html=1;aspect=fixed;strokeWidth=0.5;strokeColor=#828282;fillColor=light-dark(#BDBDBD,#EDEDED);container=0;fontSize=15;" vertex="1" parent="Zl_6zX65lW_YbLj7B-Cz-27">
          <mxGeometry x="130" y="50" width="9.999762080369253" height="9.999762080369253" as="geometry" />
        </mxCell>
        <mxCell id="Zl_6zX65lW_YbLj7B-Cz-64" value="" style="rounded=0;whiteSpace=wrap;html=1;aspect=fixed;strokeWidth=0.5;strokeColor=#828282;fillColor=light-dark(#FFFFFF,#EDEDED);container=0;fontSize=15;" vertex="1" parent="Zl_6zX65lW_YbLj7B-Cz-27">
          <mxGeometry x="70" y="10" width="9.999762080369253" height="9.999762080369253" as="geometry" />
        </mxCell>
        <mxCell id="Zl_6zX65lW_YbLj7B-Cz-65" value="" style="rounded=0;whiteSpace=wrap;html=1;aspect=fixed;strokeWidth=0.5;strokeColor=#828282;fillColor=light-dark(#843c0b, #ededed);container=0;fontSize=15;" vertex="1" parent="Zl_6zX65lW_YbLj7B-Cz-27">
          <mxGeometry x="80" y="20" width="9.999762080369253" height="9.999762080369253" as="geometry" />
        </mxCell>
        <mxCell id="Zl_6zX65lW_YbLj7B-Cz-66" value="" style="rounded=0;whiteSpace=wrap;html=1;aspect=fixed;strokeWidth=0.5;strokeColor=#828282;fillColor=light-dark(#FFFFFF,#EDEDED);container=0;fontSize=15;" vertex="1" parent="Zl_6zX65lW_YbLj7B-Cz-27">
          <mxGeometry x="80" y="20" width="9.999762080369253" height="9.999762080369253" as="geometry" />
        </mxCell>
        <mxCell id="Zl_6zX65lW_YbLj7B-Cz-67" value="" style="rounded=0;whiteSpace=wrap;html=1;aspect=fixed;strokeWidth=0.5;strokeColor=#828282;fillColor=light-dark(#843c0b, #ededed);container=0;fontSize=15;" vertex="1" parent="Zl_6zX65lW_YbLj7B-Cz-27">
          <mxGeometry x="90" y="30" width="9.999762080369253" height="9.999762080369253" as="geometry" />
        </mxCell>
        <mxCell id="Zl_6zX65lW_YbLj7B-Cz-68" value="" style="rounded=0;whiteSpace=wrap;html=1;aspect=fixed;strokeWidth=0.5;strokeColor=#828282;fillColor=light-dark(#FFFFFF,#EDEDED);container=0;fontSize=15;" vertex="1" parent="Zl_6zX65lW_YbLj7B-Cz-27">
          <mxGeometry x="90" y="30" width="9.999762080369253" height="9.999762080369253" as="geometry" />
        </mxCell>
        <mxCell id="Zl_6zX65lW_YbLj7B-Cz-69" value="" style="rounded=0;whiteSpace=wrap;html=1;aspect=fixed;strokeWidth=0.5;strokeColor=#828282;fillColor=light-dark(#843c0b, #ededed);container=0;fontSize=15;" vertex="1" parent="Zl_6zX65lW_YbLj7B-Cz-27">
          <mxGeometry x="100" y="40" width="9.999762080369253" height="9.999762080369253" as="geometry" />
        </mxCell>
        <mxCell id="Zl_6zX65lW_YbLj7B-Cz-70" value="" style="rounded=0;whiteSpace=wrap;html=1;aspect=fixed;strokeWidth=0.5;strokeColor=#828282;fillColor=light-dark(#FFFFFF,#EDEDED);container=0;fontSize=15;" vertex="1" parent="Zl_6zX65lW_YbLj7B-Cz-27">
          <mxGeometry x="100" y="40" width="9.999762080369253" height="9.999762080369253" as="geometry" />
        </mxCell>
        <mxCell id="Zl_6zX65lW_YbLj7B-Cz-71" value="" style="rounded=0;whiteSpace=wrap;html=1;aspect=fixed;strokeWidth=0.5;strokeColor=#828282;fillColor=light-dark(#BDBDBD,#EDEDED);container=0;fontSize=15;" vertex="1" parent="Zl_6zX65lW_YbLj7B-Cz-27">
          <mxGeometry x="110" y="50" width="9.999762080369253" height="9.999762080369253" as="geometry" />
        </mxCell>
        <mxCell id="Zl_6zX65lW_YbLj7B-Cz-72" value="" style="rounded=0;whiteSpace=wrap;html=1;aspect=fixed;strokeWidth=0.5;strokeColor=#828282;fillColor=light-dark(#BDBDBD,#EDEDED);container=0;fontSize=15;" vertex="1" parent="Zl_6zX65lW_YbLj7B-Cz-27">
          <mxGeometry x="120" y="60" width="9.999762080369253" height="9.999762080369253" as="geometry" />
        </mxCell>
        <mxCell id="Zl_6zX65lW_YbLj7B-Cz-73" value="" style="rounded=0;whiteSpace=wrap;html=1;aspect=fixed;strokeWidth=0.5;strokeColor=#828282;fillColor=light-dark(#FFFFFF,#EDEDED);container=0;fontSize=15;" vertex="1" parent="Zl_6zX65lW_YbLj7B-Cz-27">
          <mxGeometry x="130" y="70" width="9.999762080369253" height="9.999762080369253" as="geometry" />
        </mxCell>
        <mxCell id="Zl_6zX65lW_YbLj7B-Cz-74" value="" style="rounded=0;whiteSpace=wrap;html=1;aspect=fixed;strokeWidth=0.5;strokeColor=#828282;fillColor=light-dark(#FFFFFF,#EDEDED);container=0;fontSize=15;" vertex="1" parent="Zl_6zX65lW_YbLj7B-Cz-27">
          <mxGeometry x="60" y="20" width="9.999762080369253" height="9.999762080369253" as="geometry" />
        </mxCell>
        <mxCell id="Zl_6zX65lW_YbLj7B-Cz-75" value="" style="rounded=0;whiteSpace=wrap;html=1;aspect=fixed;strokeWidth=0.5;strokeColor=#828282;fillColor=light-dark(#FFFFFF,#EDEDED);container=0;fontSize=15;" vertex="1" parent="Zl_6zX65lW_YbLj7B-Cz-27">
          <mxGeometry x="100" y="10" width="9.999762080369253" height="9.999762080369253" as="geometry" />
        </mxCell>
        <mxCell id="Zl_6zX65lW_YbLj7B-Cz-76" value="" style="rounded=0;whiteSpace=wrap;html=1;aspect=fixed;strokeWidth=0.5;strokeColor=#828282;fillColor=light-dark(#FFFFFF,#EDEDED);container=0;fontSize=15;" vertex="1" parent="Zl_6zX65lW_YbLj7B-Cz-27">
          <mxGeometry x="110" y="10" width="9.999762080369253" height="9.999762080369253" as="geometry" />
        </mxCell>
        <mxCell id="Zl_6zX65lW_YbLj7B-Cz-77" value="" style="rounded=0;whiteSpace=wrap;html=1;aspect=fixed;strokeWidth=0.5;strokeColor=#828282;fillColor=light-dark(#FFFFFF,#EDEDED);container=0;fontSize=15;" vertex="1" parent="Zl_6zX65lW_YbLj7B-Cz-27">
          <mxGeometry x="90" y="20" width="9.999762080369253" height="9.999762080369253" as="geometry" />
        </mxCell>
        <mxCell id="Zl_6zX65lW_YbLj7B-Cz-78" value="" style="rounded=0;whiteSpace=wrap;html=1;aspect=fixed;strokeWidth=0.5;strokeColor=#828282;fillColor=light-dark(#FFFFFF,#EDEDED);container=0;fontSize=15;" vertex="1" parent="Zl_6zX65lW_YbLj7B-Cz-27">
          <mxGeometry x="100" y="20" width="9.999762080369253" height="9.999762080369253" as="geometry" />
        </mxCell>
        <mxCell id="Zl_6zX65lW_YbLj7B-Cz-79" value="" style="rounded=0;whiteSpace=wrap;html=1;aspect=fixed;strokeWidth=0.5;strokeColor=#828282;fillColor=light-dark(#FFFFFF,#EDEDED);container=0;fontSize=15;" vertex="1" parent="Zl_6zX65lW_YbLj7B-Cz-27">
          <mxGeometry x="110" y="20" width="9.999762080369253" height="9.999762080369253" as="geometry" />
        </mxCell>
        <mxCell id="Zl_6zX65lW_YbLj7B-Cz-80" value="" style="rounded=0;whiteSpace=wrap;html=1;aspect=fixed;strokeWidth=0.5;strokeColor=#828282;fillColor=light-dark(#FFFFFF,#EDEDED);container=0;fontSize=15;" vertex="1" parent="Zl_6zX65lW_YbLj7B-Cz-27">
          <mxGeometry x="130" y="40" width="9.999762080369253" height="9.999762080369253" as="geometry" />
        </mxCell>
        <mxCell id="Zl_6zX65lW_YbLj7B-Cz-81" value="" style="rounded=0;whiteSpace=wrap;html=1;aspect=fixed;strokeWidth=0.5;strokeColor=#828282;fillColor=light-dark(#BDBDBD,#EDEDED);container=0;fontSize=15;" vertex="1" parent="Zl_6zX65lW_YbLj7B-Cz-27">
          <mxGeometry x="120" y="50" width="9.999762080369253" height="9.999762080369253" as="geometry" />
        </mxCell>
        <mxCell id="Zl_6zX65lW_YbLj7B-Cz-82" value="" style="rounded=0;whiteSpace=wrap;html=1;aspect=fixed;strokeWidth=0.5;strokeColor=#828282;fillColor=light-dark(#BDBDBD,#EDEDED);container=0;fontSize=15;" vertex="1" parent="Zl_6zX65lW_YbLj7B-Cz-27">
          <mxGeometry x="130" y="60" width="9.999762080369253" height="9.999762080369253" as="geometry" />
        </mxCell>
        <mxCell id="Zl_6zX65lW_YbLj7B-Cz-83" value="" style="rounded=0;whiteSpace=wrap;html=1;aspect=fixed;strokeWidth=0.5;strokeColor=#828282;fillColor=light-dark(#FFFFFF,#EDEDED);container=0;fontSize=15;" vertex="1" parent="Zl_6zX65lW_YbLj7B-Cz-27">
          <mxGeometry x="120" y="70" width="9.999762080369253" height="9.999762080369253" as="geometry" />
        </mxCell>
        <mxCell id="Zl_6zX65lW_YbLj7B-Cz-84" value="" style="rounded=0;whiteSpace=wrap;html=1;aspect=fixed;strokeWidth=0.5;strokeColor=#828282;fillColor=light-dark(#BDBDBD,#EDEDED);container=0;fontSize=15;" vertex="1" parent="Zl_6zX65lW_YbLj7B-Cz-27">
          <mxGeometry x="110" y="60" width="9.999762080369253" height="9.999762080369253" as="geometry" />
        </mxCell>
        <mxCell id="Zl_6zX65lW_YbLj7B-Cz-85" value="" style="rounded=0;whiteSpace=wrap;html=1;aspect=fixed;strokeWidth=0.5;strokeColor=#828282;fillColor=light-dark(#BDBDBD,#EDEDED);container=0;fontSize=15;" vertex="1" parent="Zl_6zX65lW_YbLj7B-Cz-27">
          <mxGeometry x="100" y="50" width="9.999762080369253" height="9.999762080369253" as="geometry" />
        </mxCell>
        <mxCell id="Zl_6zX65lW_YbLj7B-Cz-86" value="" style="rounded=0;whiteSpace=wrap;html=1;aspect=fixed;strokeWidth=0.5;strokeColor=#828282;fillColor=light-dark(#BDBDBD,#EDEDED);container=0;fontSize=15;" vertex="1" parent="Zl_6zX65lW_YbLj7B-Cz-27">
          <mxGeometry x="100" y="60" width="9.999762080369253" height="9.999762080369253" as="geometry" />
        </mxCell>
        <mxCell id="Zl_6zX65lW_YbLj7B-Cz-87" value="" style="rounded=0;whiteSpace=wrap;html=1;aspect=fixed;strokeWidth=0.5;strokeColor=#828282;fillColor=light-dark(#FFFFFF,#EDEDED);container=0;fontSize=15;" vertex="1" parent="Zl_6zX65lW_YbLj7B-Cz-27">
          <mxGeometry x="100" y="70" width="9.999762080369253" height="9.999762080369253" as="geometry" />
        </mxCell>
        <mxCell id="Zl_6zX65lW_YbLj7B-Cz-88" value="" style="rounded=0;whiteSpace=wrap;html=1;aspect=fixed;strokeWidth=0.5;strokeColor=#828282;fillColor=light-dark(#FFFFFF,#EDEDED);container=0;fontSize=15;" vertex="1" parent="Zl_6zX65lW_YbLj7B-Cz-27">
          <mxGeometry x="110" y="70" width="9.999762080369253" height="9.999762080369253" as="geometry" />
        </mxCell>
        <mxCell id="Zl_6zX65lW_YbLj7B-Cz-89" value="" style="rounded=0;whiteSpace=wrap;html=1;aspect=fixed;strokeWidth=0.5;strokeColor=#828282;fillColor=light-dark(#FFFFFF,#EDEDED);container=0;fontSize=15;" vertex="1" parent="Zl_6zX65lW_YbLj7B-Cz-27">
          <mxGeometry x="90" y="40" width="9.999762080369253" height="9.999762080369253" as="geometry" />
        </mxCell>
        <mxCell id="Zl_6zX65lW_YbLj7B-Cz-90" value="" style="rounded=0;whiteSpace=wrap;html=1;aspect=fixed;strokeWidth=0.5;strokeColor=#828282;fillColor=light-dark(#BDBDBD,#EDEDED);container=0;fontSize=15;" vertex="1" parent="Zl_6zX65lW_YbLj7B-Cz-27">
          <mxGeometry x="90" y="50" width="9.999762080369253" height="9.999762080369253" as="geometry" />
        </mxCell>
        <mxCell id="Zl_6zX65lW_YbLj7B-Cz-91" value="" style="rounded=0;whiteSpace=wrap;html=1;aspect=fixed;strokeWidth=0.5;strokeColor=#828282;fillColor=light-dark(#BDBDBD,#EDEDED);container=0;fontSize=15;" vertex="1" parent="Zl_6zX65lW_YbLj7B-Cz-27">
          <mxGeometry x="90" y="60" width="9.999762080369253" height="9.999762080369253" as="geometry" />
        </mxCell>
        <mxCell id="Zl_6zX65lW_YbLj7B-Cz-92" value="" style="rounded=0;whiteSpace=wrap;html=1;aspect=fixed;strokeWidth=0.5;strokeColor=#828282;fillColor=light-dark(#FFFFFF,#EDEDED);container=0;fontSize=15;" vertex="1" parent="Zl_6zX65lW_YbLj7B-Cz-27">
          <mxGeometry x="90" y="70" width="9.999762080369253" height="9.999762080369253" as="geometry" />
        </mxCell>
        <mxCell id="Zl_6zX65lW_YbLj7B-Cz-93" value="" style="rounded=0;whiteSpace=wrap;html=1;aspect=fixed;strokeWidth=0.5;strokeColor=#828282;fillColor=light-dark(#FFFFFF,#EDEDED);container=0;fontSize=15;" vertex="1" parent="Zl_6zX65lW_YbLj7B-Cz-27">
          <mxGeometry x="70" y="30" width="9.999762080369253" height="9.999762080369253" as="geometry" />
        </mxCell>
        <mxCell id="Zl_6zX65lW_YbLj7B-Cz-94" value="" style="rounded=0;whiteSpace=wrap;html=1;aspect=fixed;strokeWidth=0.5;strokeColor=#828282;fillColor=light-dark(#FFFFFF,#EDEDED);container=0;fontSize=15;" vertex="1" parent="Zl_6zX65lW_YbLj7B-Cz-27">
          <mxGeometry x="80" y="30" width="9.999762080369253" height="9.999762080369253" as="geometry" />
        </mxCell>
        <mxCell id="Zl_6zX65lW_YbLj7B-Cz-95" value="" style="rounded=0;whiteSpace=wrap;html=1;aspect=fixed;strokeWidth=0.5;strokeColor=#828282;fillColor=light-dark(#FFFFFF,#EDEDED);container=0;fontSize=15;" vertex="1" parent="Zl_6zX65lW_YbLj7B-Cz-27">
          <mxGeometry x="70" y="40" width="9.999762080369253" height="9.999762080369253" as="geometry" />
        </mxCell>
        <mxCell id="Zl_6zX65lW_YbLj7B-Cz-96" value="" style="rounded=0;whiteSpace=wrap;html=1;aspect=fixed;strokeWidth=0.5;strokeColor=#828282;fillColor=light-dark(#FFFFFF,#EDEDED);container=0;fontSize=15;" vertex="1" parent="Zl_6zX65lW_YbLj7B-Cz-27">
          <mxGeometry x="80" y="40" width="9.999762080369253" height="9.999762080369253" as="geometry" />
        </mxCell>
        <mxCell id="Zl_6zX65lW_YbLj7B-Cz-97" value="" style="rounded=0;whiteSpace=wrap;html=1;aspect=fixed;strokeWidth=0.5;strokeColor=#828282;fillColor=light-dark(#BDBDBD,#EDEDED);container=0;fontSize=15;" vertex="1" parent="Zl_6zX65lW_YbLj7B-Cz-27">
          <mxGeometry x="70" y="50" width="9.999762080369253" height="9.999762080369253" as="geometry" />
        </mxCell>
        <mxCell id="Zl_6zX65lW_YbLj7B-Cz-98" value="" style="rounded=0;whiteSpace=wrap;html=1;aspect=fixed;strokeWidth=0.5;strokeColor=#828282;fillColor=light-dark(#BDBDBD,#EDEDED);container=0;fontSize=15;" vertex="1" parent="Zl_6zX65lW_YbLj7B-Cz-27">
          <mxGeometry x="80" y="50" width="9.999762080369253" height="9.999762080369253" as="geometry" />
        </mxCell>
        <mxCell id="Zl_6zX65lW_YbLj7B-Cz-99" value="" style="rounded=0;whiteSpace=wrap;html=1;aspect=fixed;strokeWidth=0.5;strokeColor=#828282;fillColor=light-dark(#BDBDBD,#EDEDED);container=0;fontSize=15;" vertex="1" parent="Zl_6zX65lW_YbLj7B-Cz-27">
          <mxGeometry x="70" y="60" width="9.999762080369253" height="9.999762080369253" as="geometry" />
        </mxCell>
        <mxCell id="Zl_6zX65lW_YbLj7B-Cz-100" value="" style="rounded=0;whiteSpace=wrap;html=1;aspect=fixed;strokeWidth=0.5;strokeColor=#828282;fillColor=light-dark(#BDBDBD,#EDEDED);container=0;fontSize=15;" vertex="1" parent="Zl_6zX65lW_YbLj7B-Cz-27">
          <mxGeometry x="80" y="60" width="9.999762080369253" height="9.999762080369253" as="geometry" />
        </mxCell>
        <mxCell id="Zl_6zX65lW_YbLj7B-Cz-101" value="" style="rounded=0;whiteSpace=wrap;html=1;aspect=fixed;strokeWidth=0.5;strokeColor=#828282;fillColor=light-dark(#FFFFFF,#EDEDED);container=0;fontSize=15;" vertex="1" parent="Zl_6zX65lW_YbLj7B-Cz-27">
          <mxGeometry x="70" y="70" width="9.999762080369253" height="9.999762080369253" as="geometry" />
        </mxCell>
        <mxCell id="Zl_6zX65lW_YbLj7B-Cz-102" value="" style="rounded=0;whiteSpace=wrap;html=1;aspect=fixed;strokeWidth=0.5;strokeColor=#828282;fillColor=light-dark(#FFFFFF,#EDEDED);container=0;fontSize=15;" vertex="1" parent="Zl_6zX65lW_YbLj7B-Cz-27">
          <mxGeometry x="80" y="70" width="9.999762080369253" height="9.999762080369253" as="geometry" />
        </mxCell>
        <mxCell id="Zl_6zX65lW_YbLj7B-Cz-103" value="" style="rounded=0;whiteSpace=wrap;html=1;aspect=fixed;strokeWidth=0.5;strokeColor=#828282;fillColor=light-dark(#FFFFFF,#EDEDED);container=0;fontSize=15;" vertex="1" parent="Zl_6zX65lW_YbLj7B-Cz-27">
          <mxGeometry x="60" y="30" width="9.999762080369253" height="9.999762080369253" as="geometry" />
        </mxCell>
        <mxCell id="Zl_6zX65lW_YbLj7B-Cz-104" value="" style="rounded=0;whiteSpace=wrap;html=1;aspect=fixed;strokeWidth=0.5;strokeColor=#828282;fillColor=light-dark(#BDBDBD,#EDEDED);container=0;fontSize=15;" vertex="1" parent="Zl_6zX65lW_YbLj7B-Cz-27">
          <mxGeometry x="60" y="50" width="9.999762080369253" height="9.999762080369253" as="geometry" />
        </mxCell>
        <mxCell id="Zl_6zX65lW_YbLj7B-Cz-105" value="" style="rounded=0;whiteSpace=wrap;html=1;aspect=fixed;strokeWidth=0.5;strokeColor=#828282;fillColor=light-dark(#BDBDBD,#EDEDED);container=0;fontSize=15;" vertex="1" parent="Zl_6zX65lW_YbLj7B-Cz-27">
          <mxGeometry x="60" y="60" width="9.999762080369253" height="9.999762080369253" as="geometry" />
        </mxCell>
        <mxCell id="Zl_6zX65lW_YbLj7B-Cz-106" value="" style="rounded=0;whiteSpace=wrap;html=1;aspect=fixed;strokeWidth=0.5;strokeColor=#828282;fillColor=light-dark(#FFFFFF,#EDEDED);container=0;fontSize=15;" vertex="1" parent="Zl_6zX65lW_YbLj7B-Cz-27">
          <mxGeometry x="60" y="70" width="9.999762080369253" height="9.999762080369253" as="geometry" />
        </mxCell>
        <mxCell id="Zl_6zX65lW_YbLj7B-Cz-107" value="" style="rounded=0;whiteSpace=wrap;html=1;aspect=fixed;strokeWidth=0.5;strokeColor=#828282;fillColor=light-dark(#FFFFFF,#EDEDED);container=0;fontSize=15;" vertex="1" parent="Zl_6zX65lW_YbLj7B-Cz-27">
          <mxGeometry y="20" width="9.999762080369253" height="9.999762080369253" as="geometry" />
        </mxCell>
        <mxCell id="Zl_6zX65lW_YbLj7B-Cz-108" value="" style="rounded=0;whiteSpace=wrap;html=1;aspect=fixed;strokeWidth=0.5;strokeColor=#828282;fillColor=light-dark(#FFFFFF,#EDEDED);container=0;fontSize=15;" vertex="1" parent="Zl_6zX65lW_YbLj7B-Cz-27">
          <mxGeometry x="30" y="10" width="9.999762080369253" height="9.999762080369253" as="geometry" />
        </mxCell>
        <mxCell id="Zl_6zX65lW_YbLj7B-Cz-109" value="" style="rounded=0;whiteSpace=wrap;html=1;aspect=fixed;strokeWidth=0.5;strokeColor=#828282;fillColor=light-dark(#FFFFFF,#EDEDED);container=0;fontSize=15;" vertex="1" parent="Zl_6zX65lW_YbLj7B-Cz-27">
          <mxGeometry x="40" y="10" width="9.999762080369253" height="9.999762080369253" as="geometry" />
        </mxCell>
        <mxCell id="Zl_6zX65lW_YbLj7B-Cz-110" value="" style="rounded=0;whiteSpace=wrap;html=1;aspect=fixed;strokeWidth=0.5;strokeColor=#828282;fillColor=light-dark(#FFFFFF,#EDEDED);container=0;fontSize=15;" vertex="1" parent="Zl_6zX65lW_YbLj7B-Cz-27">
          <mxGeometry x="50" y="10" width="9.999762080369253" height="9.999762080369253" as="geometry" />
        </mxCell>
        <mxCell id="Zl_6zX65lW_YbLj7B-Cz-111" value="" style="rounded=0;whiteSpace=wrap;html=1;aspect=fixed;strokeWidth=0.5;strokeColor=#828282;fillColor=light-dark(#FFFFFF,#EDEDED);container=0;fontSize=15;" vertex="1" parent="Zl_6zX65lW_YbLj7B-Cz-27">
          <mxGeometry x="20" y="20" width="9.999762080369253" height="9.999762080369253" as="geometry" />
        </mxCell>
        <mxCell id="Zl_6zX65lW_YbLj7B-Cz-112" value="" style="rounded=0;whiteSpace=wrap;html=1;aspect=fixed;strokeWidth=0.5;strokeColor=#828282;fillColor=light-dark(#FFFFFF,#EDEDED);container=0;fontSize=15;" vertex="1" parent="Zl_6zX65lW_YbLj7B-Cz-27">
          <mxGeometry x="50" y="20" width="9.999762080369253" height="9.999762080369253" as="geometry" />
        </mxCell>
        <mxCell id="Zl_6zX65lW_YbLj7B-Cz-113" value="" style="rounded=0;whiteSpace=wrap;html=1;aspect=fixed;strokeWidth=0.5;strokeColor=#828282;fillColor=light-dark(#FFFFFF,#EDEDED);container=0;fontSize=15;" vertex="1" parent="Zl_6zX65lW_YbLj7B-Cz-27">
          <mxGeometry x="40" y="20" width="9.999762080369253" height="9.999762080369253" as="geometry" />
        </mxCell>
        <mxCell id="Zl_6zX65lW_YbLj7B-Cz-114" value="" style="rounded=0;whiteSpace=wrap;html=1;aspect=fixed;strokeWidth=0.5;strokeColor=#828282;fillColor=light-dark(#FFFFFF,#EDEDED);container=0;fontSize=15;" vertex="1" parent="Zl_6zX65lW_YbLj7B-Cz-27">
          <mxGeometry x="30" y="20" width="9.999762080369253" height="9.999762080369253" as="geometry" />
        </mxCell>
        <mxCell id="Zl_6zX65lW_YbLj7B-Cz-115" value="" style="rounded=0;whiteSpace=wrap;html=1;aspect=fixed;strokeWidth=0.5;strokeColor=#828282;fillColor=light-dark(#FFFFFF,#EDEDED);container=0;fontSize=15;" vertex="1" parent="Zl_6zX65lW_YbLj7B-Cz-27">
          <mxGeometry y="30" width="9.999762080369253" height="9.999762080369253" as="geometry" />
        </mxCell>
        <mxCell id="Zl_6zX65lW_YbLj7B-Cz-116" value="" style="rounded=0;whiteSpace=wrap;html=1;aspect=fixed;strokeWidth=0.5;strokeColor=#828282;fillColor=light-dark(#FFFFFF,#EDEDED);container=0;fontSize=15;" vertex="1" parent="Zl_6zX65lW_YbLj7B-Cz-27">
          <mxGeometry y="40" width="9.999762080369253" height="9.999762080369253" as="geometry" />
        </mxCell>
        <mxCell id="Zl_6zX65lW_YbLj7B-Cz-117" value="" style="rounded=0;whiteSpace=wrap;html=1;aspect=fixed;strokeWidth=0.5;strokeColor=#828282;fillColor=light-dark(#BDBDBD,#EDEDED);container=0;fontSize=15;" vertex="1" parent="Zl_6zX65lW_YbLj7B-Cz-27">
          <mxGeometry y="50" width="9.999762080369253" height="9.999762080369253" as="geometry" />
        </mxCell>
        <mxCell id="Zl_6zX65lW_YbLj7B-Cz-118" value="" style="rounded=0;whiteSpace=wrap;html=1;aspect=fixed;strokeWidth=0.5;strokeColor=#828282;fillColor=light-dark(#BDBDBD,#EDEDED);container=0;fontSize=15;" vertex="1" parent="Zl_6zX65lW_YbLj7B-Cz-27">
          <mxGeometry y="60" width="9.999762080369253" height="9.999762080369253" as="geometry" />
        </mxCell>
        <mxCell id="Zl_6zX65lW_YbLj7B-Cz-119" value="" style="rounded=0;whiteSpace=wrap;html=1;aspect=fixed;strokeWidth=0.5;strokeColor=#828282;fillColor=light-dark(#FFFFFF,#EDEDED);container=0;fontSize=15;" vertex="1" parent="Zl_6zX65lW_YbLj7B-Cz-27">
          <mxGeometry y="70" width="9.999762080369253" height="9.999762080369253" as="geometry" />
        </mxCell>
        <mxCell id="Zl_6zX65lW_YbLj7B-Cz-120" value="" style="rounded=0;whiteSpace=wrap;html=1;aspect=fixed;fillColor=light-dark(#FFFFFF,#EDEDED);strokeColor=#828282;strokeWidth=0.5;container=0;fontSize=15;" vertex="1" parent="Zl_6zX65lW_YbLj7B-Cz-27">
          <mxGeometry x="10" y="40" width="9.999762080369253" height="9.999762080369253" as="geometry" />
        </mxCell>
        <mxCell id="Zl_6zX65lW_YbLj7B-Cz-121" value="" style="rounded=0;whiteSpace=wrap;html=1;aspect=fixed;strokeWidth=0.5;strokeColor=#828282;fillColor=light-dark(#FFFFFF,#EDEDED);container=0;fontSize=15;" vertex="1" parent="Zl_6zX65lW_YbLj7B-Cz-27">
          <mxGeometry x="10" y="30" width="9.999762080369253" height="9.999762080369253" as="geometry" />
        </mxCell>
        <mxCell id="Zl_6zX65lW_YbLj7B-Cz-122" value="" style="rounded=0;whiteSpace=wrap;html=1;aspect=fixed;strokeWidth=0.5;strokeColor=#828282;fillColor=light-dark(#FFFFFF,#EDEDED);container=0;fontSize=15;" vertex="1" parent="Zl_6zX65lW_YbLj7B-Cz-27">
          <mxGeometry x="20" y="30" width="9.999762080369253" height="9.999762080369253" as="geometry" />
        </mxCell>
        <mxCell id="Zl_6zX65lW_YbLj7B-Cz-123" value="" style="rounded=0;whiteSpace=wrap;html=1;aspect=fixed;strokeWidth=0.5;strokeColor=#828282;fillColor=light-dark(#FFFFFF,#EDEDED);container=0;fontSize=15;" vertex="1" parent="Zl_6zX65lW_YbLj7B-Cz-27">
          <mxGeometry x="30" y="30" width="9.999762080369253" height="9.999762080369253" as="geometry" />
        </mxCell>
        <mxCell id="Zl_6zX65lW_YbLj7B-Cz-124" value="" style="rounded=0;whiteSpace=wrap;html=1;aspect=fixed;strokeWidth=0.5;strokeColor=#828282;fillColor=light-dark(#FFFFFF,#EDEDED);container=0;fontSize=15;" vertex="1" parent="Zl_6zX65lW_YbLj7B-Cz-27">
          <mxGeometry x="40" y="30" width="9.999762080369253" height="9.999762080369253" as="geometry" />
        </mxCell>
        <mxCell id="Zl_6zX65lW_YbLj7B-Cz-125" value="" style="rounded=0;whiteSpace=wrap;html=1;aspect=fixed;strokeWidth=0.5;strokeColor=#828282;fillColor=light-dark(#FFFFFF,#EDEDED);container=0;fontSize=15;" vertex="1" parent="Zl_6zX65lW_YbLj7B-Cz-27">
          <mxGeometry x="50" y="30" width="9.999762080369253" height="9.999762080369253" as="geometry" />
        </mxCell>
        <mxCell id="Zl_6zX65lW_YbLj7B-Cz-126" value="" style="rounded=0;whiteSpace=wrap;html=1;aspect=fixed;strokeWidth=0.5;strokeColor=#828282;fillColor=light-dark(#FFFFFF,#EDEDED);container=0;fontSize=15;" vertex="1" parent="Zl_6zX65lW_YbLj7B-Cz-27">
          <mxGeometry x="20" y="40" width="9.999762080369253" height="9.999762080369253" as="geometry" />
        </mxCell>
        <mxCell id="Zl_6zX65lW_YbLj7B-Cz-127" value="" style="rounded=0;whiteSpace=wrap;html=1;aspect=fixed;strokeWidth=0.5;strokeColor=#828282;fillColor=light-dark(#FFFFFF,#EDEDED);container=0;fontSize=15;" vertex="1" parent="Zl_6zX65lW_YbLj7B-Cz-27">
          <mxGeometry x="30" y="40" width="9.999762080369253" height="9.999762080369253" as="geometry" />
        </mxCell>
        <mxCell id="Zl_6zX65lW_YbLj7B-Cz-128" value="" style="rounded=0;whiteSpace=wrap;html=1;aspect=fixed;strokeWidth=0.5;strokeColor=#828282;fillColor=light-dark(#FFFFFF,#EDEDED);container=0;fontSize=15;" vertex="1" parent="Zl_6zX65lW_YbLj7B-Cz-27">
          <mxGeometry x="50" y="40" width="9.999762080369253" height="9.999762080369253" as="geometry" />
        </mxCell>
        <mxCell id="Zl_6zX65lW_YbLj7B-Cz-129" value="" style="rounded=0;whiteSpace=wrap;html=1;aspect=fixed;strokeWidth=0.5;strokeColor=#828282;fillColor=light-dark(#BDBDBD,#EDEDED);container=0;fontSize=15;" vertex="1" parent="Zl_6zX65lW_YbLj7B-Cz-27">
          <mxGeometry x="30" y="50" width="9.999762080369253" height="9.999762080369253" as="geometry" />
        </mxCell>
        <mxCell id="Zl_6zX65lW_YbLj7B-Cz-130" value="" style="rounded=0;whiteSpace=wrap;html=1;aspect=fixed;strokeWidth=0.5;strokeColor=#828282;fillColor=light-dark(#BDBDBD,#EDEDED);container=0;fontSize=15;" vertex="1" parent="Zl_6zX65lW_YbLj7B-Cz-27">
          <mxGeometry x="30" y="60" width="9.999762080369253" height="9.999762080369253" as="geometry" />
        </mxCell>
        <mxCell id="Zl_6zX65lW_YbLj7B-Cz-131" value="" style="rounded=0;whiteSpace=wrap;html=1;aspect=fixed;fillColor=light-dark(#BDBDBD,#EDEDED);strokeColor=#828282;strokeWidth=0.5;container=0;fontSize=15;" vertex="1" parent="Zl_6zX65lW_YbLj7B-Cz-27">
          <mxGeometry x="40" y="60" width="9.999762080369253" height="9.999762080369253" as="geometry" />
        </mxCell>
        <mxCell id="Zl_6zX65lW_YbLj7B-Cz-132" value="" style="rounded=0;whiteSpace=wrap;html=1;aspect=fixed;fillColor=light-dark(#FFFFFF,#EDEDED);strokeColor=#828282;strokeWidth=0.5;container=0;fontSize=15;" vertex="1" parent="Zl_6zX65lW_YbLj7B-Cz-27">
          <mxGeometry x="50" y="70" width="9.999762080369253" height="9.999762080369253" as="geometry" />
        </mxCell>
        <mxCell id="Zl_6zX65lW_YbLj7B-Cz-133" value="" style="rounded=0;whiteSpace=wrap;html=1;aspect=fixed;strokeWidth=0.5;strokeColor=#828282;fillColor=light-dark(#BDBDBD,#EDEDED);container=0;fontSize=15;" vertex="1" parent="Zl_6zX65lW_YbLj7B-Cz-27">
          <mxGeometry x="40" y="50" width="9.999762080369253" height="9.999762080369253" as="geometry" />
        </mxCell>
        <mxCell id="Zl_6zX65lW_YbLj7B-Cz-134" value="" style="rounded=0;whiteSpace=wrap;html=1;aspect=fixed;fillColor=light-dark(#FFFFFF,#EDEDED);strokeColor=#828282;strokeWidth=0.5;container=0;fontSize=15;" vertex="1" parent="Zl_6zX65lW_YbLj7B-Cz-27">
          <mxGeometry x="30" y="70" width="9.999762080369253" height="9.999762080369253" as="geometry" />
        </mxCell>
        <mxCell id="Zl_6zX65lW_YbLj7B-Cz-135" value="" style="rounded=0;whiteSpace=wrap;html=1;aspect=fixed;fillColor=light-dark(#BDBDBD,#EDEDED);strokeColor=#828282;strokeWidth=0.5;container=0;fontSize=15;" vertex="1" parent="Zl_6zX65lW_YbLj7B-Cz-27">
          <mxGeometry x="50" y="50" width="9.999762080369253" height="9.999762080369253" as="geometry" />
        </mxCell>
        <mxCell id="Zl_6zX65lW_YbLj7B-Cz-136" value="" style="rounded=0;whiteSpace=wrap;html=1;aspect=fixed;strokeWidth=0.5;strokeColor=#828282;fillColor=light-dark(#FFFFFF,#EDEDED);container=0;fontSize=15;" vertex="1" parent="Zl_6zX65lW_YbLj7B-Cz-27">
          <mxGeometry x="40" y="40" width="9.999762080369253" height="9.999762080369253" as="geometry" />
        </mxCell>
        <mxCell id="Zl_6zX65lW_YbLj7B-Cz-137" value="" style="rounded=0;whiteSpace=wrap;html=1;aspect=fixed;strokeWidth=0.5;strokeColor=#828282;fillColor=light-dark(#BDBDBD,#EDEDED);container=0;fontSize=15;" vertex="1" parent="Zl_6zX65lW_YbLj7B-Cz-27">
          <mxGeometry x="50" y="60" width="9.999762080369253" height="9.999762080369253" as="geometry" />
        </mxCell>
        <mxCell id="Zl_6zX65lW_YbLj7B-Cz-138" value="" style="rounded=0;whiteSpace=wrap;html=1;aspect=fixed;strokeWidth=0.5;strokeColor=#828282;fillColor=light-dark(#FFFFFF,#EDEDED);container=0;fontSize=15;" vertex="1" parent="Zl_6zX65lW_YbLj7B-Cz-27">
          <mxGeometry x="40" y="70" width="9.999762080369253" height="9.999762080369253" as="geometry" />
        </mxCell>
        <mxCell id="Zl_6zX65lW_YbLj7B-Cz-139" value="" style="rounded=0;whiteSpace=wrap;html=1;aspect=fixed;strokeWidth=0.5;strokeColor=#828282;fillColor=light-dark(#FFFFFF,#EDEDED);container=0;fontSize=15;" vertex="1" parent="Zl_6zX65lW_YbLj7B-Cz-27">
          <mxGeometry x="10" y="70" width="9.999762080369253" height="9.999762080369253" as="geometry" />
        </mxCell>
        <mxCell id="Zl_6zX65lW_YbLj7B-Cz-140" value="" style="rounded=0;whiteSpace=wrap;html=1;aspect=fixed;strokeWidth=0.5;strokeColor=#828282;fillColor=light-dark(#FFFFFF,#EDEDED);container=0;fontSize=15;" vertex="1" parent="Zl_6zX65lW_YbLj7B-Cz-27">
          <mxGeometry x="20" y="70" width="9.999762080369253" height="9.999762080369253" as="geometry" />
        </mxCell>
        <mxCell id="Zl_6zX65lW_YbLj7B-Cz-141" value="" style="rounded=0;whiteSpace=wrap;html=1;aspect=fixed;strokeWidth=0.5;strokeColor=#828282;fillColor=light-dark(#BDBDBD,#EDEDED);container=0;fontSize=15;" vertex="1" parent="Zl_6zX65lW_YbLj7B-Cz-27">
          <mxGeometry x="10" y="60" width="9.999762080369253" height="9.999762080369253" as="geometry" />
        </mxCell>
        <mxCell id="Zl_6zX65lW_YbLj7B-Cz-142" value="" style="rounded=0;whiteSpace=wrap;html=1;aspect=fixed;strokeWidth=0.5;strokeColor=#828282;fillColor=light-dark(#BDBDBD,#EDEDED);container=0;fontSize=15;" vertex="1" parent="Zl_6zX65lW_YbLj7B-Cz-27">
          <mxGeometry x="10" y="50" width="9.999762080369253" height="9.999762080369253" as="geometry" />
        </mxCell>
        <mxCell id="Zl_6zX65lW_YbLj7B-Cz-143" value="" style="rounded=0;whiteSpace=wrap;html=1;aspect=fixed;strokeWidth=0.5;strokeColor=#828282;fillColor=light-dark(#BDBDBD,#EDEDED);container=0;fontSize=15;" vertex="1" parent="Zl_6zX65lW_YbLj7B-Cz-27">
          <mxGeometry x="20" y="50" width="9.999762080369253" height="9.999762080369253" as="geometry" />
        </mxCell>
        <mxCell id="Zl_6zX65lW_YbLj7B-Cz-144" value="" style="rounded=0;whiteSpace=wrap;html=1;aspect=fixed;strokeWidth=0.5;strokeColor=#828282;fillColor=light-dark(#BDBDBD,#EDEDED);container=0;fontSize=15;" vertex="1" parent="Zl_6zX65lW_YbLj7B-Cz-27">
          <mxGeometry x="20" y="60" width="9.999762080369253" height="9.999762080369253" as="geometry" />
        </mxCell>
        <mxCell id="Zl_6zX65lW_YbLj7B-Cz-145" value="" style="endArrow=none;html=1;rounded=0;entryX=0;entryY=0;entryDx=0;entryDy=0;exitX=0;exitY=1;exitDx=0;exitDy=0;fontSize=15;" edge="1" parent="Zl_6zX65lW_YbLj7B-Cz-27" source="Zl_6zX65lW_YbLj7B-Cz-119" target="Zl_6zX65lW_YbLj7B-Cz-38">
          <mxGeometry width="50" height="50" relative="1" as="geometry">
            <mxPoint x="-30" y="32.24000000000001" as="sourcePoint" />
            <mxPoint x="-5" y="7.240000000000009" as="targetPoint" />
          </mxGeometry>
        </mxCell>
        <mxCell id="Zl_6zX65lW_YbLj7B-Cz-146" value="" style="endArrow=none;html=1;rounded=0;exitX=1;exitY=1;exitDx=0;exitDy=0;fontSize=15;" edge="1" parent="Zl_6zX65lW_YbLj7B-Cz-27" source="Zl_6zX65lW_YbLj7B-Cz-73">
          <mxGeometry width="50" height="50" relative="1" as="geometry">
            <mxPoint x="5" y="85.24000000000001" as="sourcePoint" />
            <mxPoint y="80.24000000000001" as="targetPoint" />
          </mxGeometry>
        </mxCell>
        <mxCell id="Zl_6zX65lW_YbLj7B-Cz-147" value="" style="endArrow=none;html=1;rounded=0;entryX=1;entryY=0;entryDx=0;entryDy=0;exitX=1;exitY=1;exitDx=0;exitDy=0;fontSize=15;" edge="1" parent="Zl_6zX65lW_YbLj7B-Cz-27" source="Zl_6zX65lW_YbLj7B-Cz-73" target="Zl_6zX65lW_YbLj7B-Cz-55">
          <mxGeometry width="50" height="50" relative="1" as="geometry">
            <mxPoint x="140" y="77.24000000000001" as="sourcePoint" />
            <mxPoint x="5" y="85.24000000000001" as="targetPoint" />
          </mxGeometry>
        </mxCell>
        <mxCell id="Zl_6zX65lW_YbLj7B-Cz-148" value="" style="endArrow=none;html=1;rounded=0;entryX=1;entryY=0;entryDx=0;entryDy=0;exitX=0;exitY=0;exitDx=0;exitDy=0;fontSize=15;" edge="1" parent="Zl_6zX65lW_YbLj7B-Cz-27" source="Zl_6zX65lW_YbLj7B-Cz-38" target="Zl_6zX65lW_YbLj7B-Cz-55">
          <mxGeometry width="50" height="50" relative="1" as="geometry">
            <mxPoint x="5" y="85.24000000000001" as="sourcePoint" />
            <mxPoint x="5" y="5.240000000000009" as="targetPoint" />
          </mxGeometry>
        </mxCell>
        <mxCell id="Zl_6zX65lW_YbLj7B-Cz-149" value="" style="endArrow=none;html=1;rounded=0;entryX=0;entryY=0;entryDx=0;entryDy=0;exitX=1;exitY=1;exitDx=0;exitDy=0;fontSize=15;" edge="1" parent="Zl_6zX65lW_YbLj7B-Cz-27" source="Zl_6zX65lW_YbLj7B-Cz-132" target="Zl_6zX65lW_YbLj7B-Cz-33">
          <mxGeometry width="50" height="50" relative="1" as="geometry">
            <mxPoint x="50" y="87.24000000000001" as="sourcePoint" />
            <mxPoint x="5" y="5.240000000000009" as="targetPoint" />
          </mxGeometry>
        </mxCell>
        <mxCell id="Zl_6zX65lW_YbLj7B-Cz-150" value="" style="shape=sumEllipse;perimeter=ellipsePerimeter;whiteSpace=wrap;html=1;backgroundOutline=1;aspect=fixed;fontSize=15;" vertex="1" parent="1">
          <mxGeometry x="-1322.5" y="-553.71" width="20" height="20" as="geometry" />
        </mxCell>
        <mxCell id="Zl_6zX65lW_YbLj7B-Cz-151" value="" style="endArrow=block;html=1;rounded=0;entryX=0;entryY=0.5;entryDx=0;entryDy=0;exitX=1;exitY=1;exitDx=0;exitDy=0;endFill=1;fontSize=15;" edge="1" parent="1" source="Zl_6zX65lW_YbLj7B-Cz-61" target="Zl_6zX65lW_YbLj7B-Cz-150">
          <mxGeometry width="50" height="50" relative="1" as="geometry">
            <mxPoint x="-669.78" y="-497" as="sourcePoint" />
            <mxPoint x="-806.78" y="-567" as="targetPoint" />
          </mxGeometry>
        </mxCell>
        <mxCell id="Zl_6zX65lW_YbLj7B-Cz-152" value="" style="rounded=0;whiteSpace=wrap;html=1;aspect=fixed;strokeWidth=0.5;strokeColor=#828282;fillColor=light-dark(#FFFFFF,#EDEDED);container=0;fontSize=15;" vertex="1" parent="1">
          <mxGeometry x="-1378.0714285714284" y="-1315.83" width="15.713911840580256" height="15.713911840580256" as="geometry" />
        </mxCell>
        <mxCell id="Zl_6zX65lW_YbLj7B-Cz-153" value="" style="rounded=0;whiteSpace=wrap;html=1;aspect=fixed;strokeWidth=0.5;strokeColor=#828282;fillColor=light-dark(#FFFFFF,#EDEDED);container=0;fontSize=15;" vertex="1" parent="1">
          <mxGeometry x="-1362.357142857143" y="-1315.83" width="15.713911840580256" height="15.713911840580256" as="geometry" />
        </mxCell>
        <mxCell id="Zl_6zX65lW_YbLj7B-Cz-154" value="" style="rounded=0;whiteSpace=wrap;html=1;aspect=fixed;strokeWidth=0.5;strokeColor=#828282;fillColor=light-dark(#FFFFFF,#EDEDED);container=0;fontSize=15;" vertex="1" parent="1">
          <mxGeometry x="-1346.642857142857" y="-1315.83" width="15.713911840580256" height="15.713911840580256" as="geometry" />
        </mxCell>
        <mxCell id="Zl_6zX65lW_YbLj7B-Cz-155" value="" style="rounded=0;whiteSpace=wrap;html=1;aspect=fixed;strokeWidth=0.5;strokeColor=#828282;fillColor=light-dark(#FFFFFF,#EDEDED);container=0;fontSize=15;" vertex="1" parent="1">
          <mxGeometry x="-1283.7857142857142" y="-1315.83" width="15.713911840580256" height="15.713911840580256" as="geometry" />
        </mxCell>
        <mxCell id="Zl_6zX65lW_YbLj7B-Cz-156" value="" style="rounded=0;whiteSpace=wrap;html=1;aspect=fixed;strokeWidth=0.5;strokeColor=#828282;fillColor=light-dark(#FFFFFF,#EDEDED);container=0;fontSize=15;" vertex="1" parent="1">
          <mxGeometry x="-1330.9285714285716" y="-1315.83" width="15.713911840580256" height="15.713911840580256" as="geometry" />
        </mxCell>
        <mxCell id="Zl_6zX65lW_YbLj7B-Cz-157" value="" style="rounded=0;whiteSpace=wrap;html=1;aspect=fixed;strokeWidth=0.5;strokeColor=#828282;fillColor=light-dark(#843c0b, #ededed);container=0;fontSize=15;" vertex="1" parent="1">
          <mxGeometry x="-1315.2142857142858" y="-1315.83" width="15.713911840580256" height="15.713911840580256" as="geometry" />
        </mxCell>
        <mxCell id="Zl_6zX65lW_YbLj7B-Cz-158" value="" style="rounded=0;whiteSpace=wrap;html=1;aspect=fixed;strokeWidth=0.5;strokeColor=#828282;fillColor=light-dark(#FFFFFF,#EDEDED);container=0;fontSize=15;" vertex="1" parent="1">
          <mxGeometry x="-1268.0714285714287" y="-1315.83" width="15.713911840580256" height="15.713911840580256" as="geometry" />
        </mxCell>
        <mxCell id="Zl_6zX65lW_YbLj7B-Cz-159" value="" style="rounded=0;whiteSpace=wrap;html=1;fillColor=light-dark(#FFFFFF,#EDEDED);strokeColor=#828282;aspect=fixed;strokeWidth=0.5;container=0;fontSize=15;" vertex="1" parent="1">
          <mxGeometry x="-1299.5" y="-1315.83" width="15.713911840580256" height="15.713911840580256" as="geometry" />
        </mxCell>
        <mxCell id="Zl_6zX65lW_YbLj7B-Cz-160" value="" style="rounded=0;whiteSpace=wrap;html=1;aspect=fixed;strokeWidth=0.5;strokeColor=#828282;fillColor=light-dark(#FFFFFF,#EDEDED);container=0;fontSize=15;" vertex="1" parent="1">
          <mxGeometry x="-1252.357142857143" y="-1315.83" width="15.713911840580256" height="15.713911840580256" as="geometry" />
        </mxCell>
        <mxCell id="Zl_6zX65lW_YbLj7B-Cz-161" value="" style="rounded=0;whiteSpace=wrap;html=1;aspect=fixed;fillColor=light-dark(#FFFFFF,#EDEDED);strokeColor=#828282;strokeWidth=0.5;container=0;fontSize=15;" vertex="1" parent="1">
          <mxGeometry x="-1393.7857142857142" y="-1315.83" width="15.713911840580256" height="15.713911840580256" as="geometry" />
        </mxCell>
        <mxCell id="Zl_6zX65lW_YbLj7B-Cz-162" value="" style="rounded=0;whiteSpace=wrap;html=1;aspect=fixed;strokeWidth=0.5;strokeColor=#828282;fillColor=light-dark(#FFFFFF,#EDEDED);container=0;fontSize=15;" vertex="1" parent="1">
          <mxGeometry x="-1409.5" y="-1315.83" width="15.713911840580256" height="15.713911840580256" as="geometry" />
        </mxCell>
        <mxCell id="Zl_6zX65lW_YbLj7B-Cz-163" value="" style="rounded=0;whiteSpace=wrap;html=1;aspect=fixed;strokeWidth=0.5;strokeColor=#828282;fillColor=light-dark(#FFFFFF,#EDEDED);container=0;fontSize=15;" vertex="1" parent="1">
          <mxGeometry x="-1236.642857142857" y="-1315.83" width="15.713911840580256" height="15.713911840580256" as="geometry" />
        </mxCell>
        <mxCell id="Zl_6zX65lW_YbLj7B-Cz-164" value="" style="rounded=0;whiteSpace=wrap;html=1;aspect=fixed;strokeWidth=0.5;strokeColor=#828282;fillColor=light-dark(#FFFFFF,#EDEDED);container=0;fontSize=15;" vertex="1" parent="1">
          <mxGeometry x="-1378.0714285714284" y="-1300.115892323031" width="15.713911840580256" height="15.713911840580256" as="geometry" />
        </mxCell>
        <mxCell id="Zl_6zX65lW_YbLj7B-Cz-165" value="" style="rounded=0;whiteSpace=wrap;html=1;aspect=fixed;strokeWidth=0.5;strokeColor=#828282;container=0;fontSize=15;" vertex="1" parent="1">
          <mxGeometry x="-1362.357142857143" y="-1300.115892323031" width="15.713911840580256" height="15.713911840580256" as="geometry" />
        </mxCell>
        <mxCell id="Zl_6zX65lW_YbLj7B-Cz-166" value="" style="rounded=0;whiteSpace=wrap;html=1;aspect=fixed;strokeWidth=0.5;strokeColor=#828282;fillColor=light-dark(#FFFFFF,#EDEDED);container=0;fontSize=15;" vertex="1" parent="1">
          <mxGeometry x="-1283.7857142857142" y="-1300.115892323031" width="15.713911840580256" height="15.713911840580256" as="geometry" />
        </mxCell>
        <mxCell id="Zl_6zX65lW_YbLj7B-Cz-167" value="" style="rounded=0;whiteSpace=wrap;html=1;aspect=fixed;strokeWidth=0.5;strokeColor=#828282;container=0;fontSize=15;" vertex="1" parent="1">
          <mxGeometry x="-1330.9285714285716" y="-1300.115892323031" width="15.713911840580256" height="15.713911840580256" as="geometry" />
        </mxCell>
        <mxCell id="Zl_6zX65lW_YbLj7B-Cz-168" value="" style="rounded=0;whiteSpace=wrap;html=1;aspect=fixed;strokeWidth=0.5;strokeColor=#828282;fillColor=light-dark(#FFFFFF,#EDEDED);container=0;fontSize=15;" vertex="1" parent="1">
          <mxGeometry x="-1315.2142857142858" y="-1300.115892323031" width="15.713911840580256" height="15.713911840580256" as="geometry" />
        </mxCell>
        <mxCell id="Zl_6zX65lW_YbLj7B-Cz-169" value="" style="rounded=0;whiteSpace=wrap;html=1;aspect=fixed;strokeWidth=0.5;strokeColor=#828282;fillColor=light-dark(#FFFFFF,#EDEDED);container=0;fontSize=15;" vertex="1" parent="1">
          <mxGeometry x="-1268.0714285714287" y="-1300.115892323031" width="15.713911840580256" height="15.713911840580256" as="geometry" />
        </mxCell>
        <mxCell id="Zl_6zX65lW_YbLj7B-Cz-170" value="" style="rounded=0;whiteSpace=wrap;html=1;aspect=fixed;fillColor=light-dark(#FFFFFF,#EDEDED);strokeColor=#828282;strokeWidth=0.5;container=0;fontSize=15;" vertex="1" parent="1">
          <mxGeometry x="-1393.7857142857142" y="-1300.115892323031" width="15.713911840580256" height="15.713911840580256" as="geometry" />
        </mxCell>
        <mxCell id="Zl_6zX65lW_YbLj7B-Cz-171" value="" style="rounded=0;whiteSpace=wrap;html=1;aspect=fixed;strokeWidth=0.5;strokeColor=#828282;fillColor=light-dark(#FFFFFF,#EDEDED);container=0;fontSize=15;" vertex="1" parent="1">
          <mxGeometry x="-1409.5" y="-1300.115892323031" width="15.713911840580256" height="15.713911840580256" as="geometry" />
        </mxCell>
        <mxCell id="Zl_6zX65lW_YbLj7B-Cz-172" value="" style="rounded=0;whiteSpace=wrap;html=1;fillColor=light-dark(#FFFFFF,#EDEDED);strokeColor=#828282;aspect=fixed;strokeWidth=0.5;container=0;fontSize=15;" vertex="1" parent="1">
          <mxGeometry x="-1299.5" y="-1284.4017846460617" width="15.713911840580256" height="15.713911840580256" as="geometry" />
        </mxCell>
        <mxCell id="Zl_6zX65lW_YbLj7B-Cz-173" value="" style="rounded=0;whiteSpace=wrap;html=1;aspect=fixed;fillColor=light-dark(#FFFFFF,#EDEDED);strokeColor=#828282;strokeWidth=0.5;container=0;fontSize=15;" vertex="1" parent="1">
          <mxGeometry x="-1393.7857142857142" y="-1284.4017846460617" width="15.713911840580256" height="15.713911840580256" as="geometry" />
        </mxCell>
        <mxCell id="Zl_6zX65lW_YbLj7B-Cz-174" value="" style="rounded=0;whiteSpace=wrap;html=1;aspect=fixed;strokeWidth=0.5;strokeColor=#828282;fillColor=light-dark(#FFFFFF,#EDEDED);container=0;fontSize=15;" vertex="1" parent="1">
          <mxGeometry x="-1252.357142857143" y="-1268.6876769690925" width="15.713911840580256" height="15.713911840580256" as="geometry" />
        </mxCell>
        <mxCell id="Zl_6zX65lW_YbLj7B-Cz-175" value="" style="rounded=0;whiteSpace=wrap;html=1;aspect=fixed;strokeWidth=0.5;strokeColor=#828282;fillColor=light-dark(#FFFFFF,#EDEDED);container=0;fontSize=15;" vertex="1" parent="1">
          <mxGeometry x="-1236.642857142857" y="-1268.6876769690925" width="15.713911840580256" height="15.713911840580256" as="geometry" />
        </mxCell>
        <mxCell id="Zl_6zX65lW_YbLj7B-Cz-176" value="" style="rounded=0;whiteSpace=wrap;html=1;aspect=fixed;strokeWidth=0.5;strokeColor=#828282;container=0;fontSize=15;" vertex="1" parent="1">
          <mxGeometry x="-1315.2142857142858" y="-1252.9735692921236" width="15.713911840580256" height="15.713911840580256" as="geometry" />
        </mxCell>
        <mxCell id="Zl_6zX65lW_YbLj7B-Cz-177" value="" style="rounded=0;whiteSpace=wrap;html=1;aspect=fixed;strokeWidth=0.5;strokeColor=#828282;fillColor=light-dark(#fafafa, #ededed);container=0;fontSize=15;" vertex="1" parent="1">
          <mxGeometry x="-1236.642857142857" y="-1252.9735692921236" width="15.713911840580256" height="15.713911840580256" as="geometry" />
        </mxCell>
        <mxCell id="Zl_6zX65lW_YbLj7B-Cz-178" value="" style="rounded=0;whiteSpace=wrap;html=1;aspect=fixed;strokeWidth=0.5;strokeColor=#828282;fillColor=light-dark(#FFFFFF,#EDEDED);container=0;fontSize=15;" vertex="1" parent="1">
          <mxGeometry x="-1220.9285714285713" y="-1315.83" width="15.713911840580256" height="15.713911840580256" as="geometry" />
        </mxCell>
        <mxCell id="Zl_6zX65lW_YbLj7B-Cz-179" value="" style="rounded=0;whiteSpace=wrap;html=1;aspect=fixed;strokeWidth=0.5;strokeColor=#828282;fillColor=light-dark(#FFFFFF,#EDEDED);container=0;fontSize=15;" vertex="1" parent="1">
          <mxGeometry x="-1205.2142857142856" y="-1315.83" width="15.713911840580256" height="15.713911840580256" as="geometry" />
        </mxCell>
        <mxCell id="Zl_6zX65lW_YbLj7B-Cz-180" value="" style="rounded=0;whiteSpace=wrap;html=1;aspect=fixed;strokeWidth=0.5;strokeColor=#828282;fillColor=light-dark(#FFFFFF,#EDEDED);container=0;fontSize=15;" vertex="1" parent="1">
          <mxGeometry x="-1220.9285714285713" y="-1300.115892323031" width="15.713911840580256" height="15.713911840580256" as="geometry" />
        </mxCell>
        <mxCell id="Zl_6zX65lW_YbLj7B-Cz-181" value="" style="rounded=0;whiteSpace=wrap;html=1;aspect=fixed;strokeWidth=0.5;strokeColor=#828282;fillColor=light-dark(#FFFFFF,#EDEDED);container=0;fontSize=15;" vertex="1" parent="1">
          <mxGeometry x="-1205.2142857142856" y="-1300.115892323031" width="15.713911840580256" height="15.713911840580256" as="geometry" />
        </mxCell>
        <mxCell id="Zl_6zX65lW_YbLj7B-Cz-182" value="" style="rounded=0;whiteSpace=wrap;html=1;aspect=fixed;strokeWidth=0.5;strokeColor=#828282;fillColor=light-dark(#FFFFFF,#EDEDED);container=0;fontSize=15;" vertex="1" parent="1">
          <mxGeometry x="-1220.9285714285713" y="-1284.4017846460617" width="15.713911840580256" height="15.713911840580256" as="geometry" />
        </mxCell>
        <mxCell id="Zl_6zX65lW_YbLj7B-Cz-183" value="" style="rounded=0;whiteSpace=wrap;html=1;aspect=fixed;strokeWidth=0.5;strokeColor=#828282;fillColor=light-dark(#FFFFFF,#EDEDED);container=0;fontSize=15;" vertex="1" parent="1">
          <mxGeometry x="-1205.2142857142856" y="-1284.4017846460617" width="15.713911840580256" height="15.713911840580256" as="geometry" />
        </mxCell>
        <mxCell id="Zl_6zX65lW_YbLj7B-Cz-184" value="" style="rounded=0;whiteSpace=wrap;html=1;aspect=fixed;strokeWidth=0.5;strokeColor=#828282;fillColor=light-dark(#FFFFFF,#EDEDED);container=0;fontSize=15;" vertex="1" parent="1">
          <mxGeometry x="-1220.9285714285713" y="-1268.6876769690925" width="15.713911840580256" height="15.713911840580256" as="geometry" />
        </mxCell>
        <mxCell id="Zl_6zX65lW_YbLj7B-Cz-185" value="" style="rounded=0;whiteSpace=wrap;html=1;aspect=fixed;strokeWidth=0.5;strokeColor=#828282;fillColor=light-dark(#FFFFFF,#EDEDED);container=0;fontSize=15;" vertex="1" parent="1">
          <mxGeometry x="-1205.2142857142856" y="-1268.6876769690925" width="15.713911840580256" height="15.713911840580256" as="geometry" />
        </mxCell>
        <mxCell id="Zl_6zX65lW_YbLj7B-Cz-186" value="" style="rounded=0;whiteSpace=wrap;html=1;aspect=fixed;strokeWidth=0.5;strokeColor=#828282;fillColor=light-dark(#fafafa, #ededed);container=0;fontSize=15;" vertex="1" parent="1">
          <mxGeometry x="-1220.9285714285713" y="-1252.9735692921236" width="15.713911840580256" height="15.713911840580256" as="geometry" />
        </mxCell>
        <mxCell id="Zl_6zX65lW_YbLj7B-Cz-187" value="" style="rounded=0;whiteSpace=wrap;html=1;aspect=fixed;strokeWidth=0.5;strokeColor=#828282;fillColor=light-dark(#f4b183, #ededed);container=0;fontSize=15;" vertex="1" parent="1">
          <mxGeometry x="-1205.2142857142856" y="-1237.26" width="15.713911840580256" height="15.713911840580256" as="geometry" />
        </mxCell>
        <mxCell id="Zl_6zX65lW_YbLj7B-Cz-188" value="" style="rounded=0;whiteSpace=wrap;html=1;aspect=fixed;strokeWidth=0.5;strokeColor=#828282;fillColor=light-dark(#843c0b, #ededed);container=0;fontSize=15;" vertex="1" parent="1">
          <mxGeometry x="-1299.5" y="-1300.115892323031" width="15.713911840580256" height="15.713911840580256" as="geometry" />
        </mxCell>
        <mxCell id="Zl_6zX65lW_YbLj7B-Cz-189" value="" style="rounded=0;whiteSpace=wrap;html=1;aspect=fixed;strokeWidth=0.5;strokeColor=#828282;fillColor=light-dark(#843c0b, #ededed);container=0;fontSize=15;" vertex="1" parent="1">
          <mxGeometry x="-1283.7857142857142" y="-1284.4017846460617" width="15.713911840580256" height="15.713911840580256" as="geometry" />
        </mxCell>
        <mxCell id="Zl_6zX65lW_YbLj7B-Cz-190" value="" style="rounded=0;whiteSpace=wrap;html=1;aspect=fixed;strokeWidth=0.5;strokeColor=#828282;fillColor=light-dark(#843c0b, #ededed);container=0;fontSize=15;" vertex="1" parent="1">
          <mxGeometry x="-1283.7857142857142" y="-1284.4017846460617" width="15.713911840580256" height="15.713911840580256" as="geometry" />
        </mxCell>
        <mxCell id="Zl_6zX65lW_YbLj7B-Cz-191" value="" style="rounded=0;whiteSpace=wrap;html=1;aspect=fixed;strokeWidth=0.5;strokeColor=#828282;fillColor=light-dark(#843c0b, #ededed);container=0;fontSize=15;" vertex="1" parent="1">
          <mxGeometry x="-1268.0714285714287" y="-1268.6876769690925" width="15.713911840580256" height="15.713911840580256" as="geometry" />
        </mxCell>
        <mxCell id="Zl_6zX65lW_YbLj7B-Cz-192" value="" style="rounded=0;whiteSpace=wrap;html=1;aspect=fixed;strokeWidth=0.5;strokeColor=#828282;fillColor=light-dark(#843c0b, #ededed);container=0;fontSize=15;" vertex="1" parent="1">
          <mxGeometry x="-1268.0714285714287" y="-1268.6876769690925" width="15.713911840580256" height="15.713911840580256" as="geometry" />
        </mxCell>
        <mxCell id="Zl_6zX65lW_YbLj7B-Cz-193" value="" style="rounded=0;whiteSpace=wrap;html=1;aspect=fixed;strokeWidth=0.5;strokeColor=#828282;fillColor=light-dark(#843c0b, #ededed);container=0;fontSize=15;" vertex="1" parent="1">
          <mxGeometry x="-1252.357142857143" y="-1252.9735692921236" width="15.713911840580256" height="15.713911840580256" as="geometry" />
        </mxCell>
        <mxCell id="Zl_6zX65lW_YbLj7B-Cz-194" value="" style="rounded=0;whiteSpace=wrap;html=1;aspect=fixed;strokeWidth=0.5;strokeColor=#828282;fillColor=light-dark(#843c0b, #ededed);container=0;fontSize=15;" vertex="1" parent="1">
          <mxGeometry x="-1252.357142857143" y="-1252.9735692921236" width="15.713911840580256" height="15.713911840580256" as="geometry" />
        </mxCell>
        <mxCell id="Zl_6zX65lW_YbLj7B-Cz-195" value="" style="rounded=0;whiteSpace=wrap;html=1;aspect=fixed;strokeWidth=0.5;strokeColor=#828282;fillColor=light-dark(#843c0b, #ededed);container=0;fontSize=15;" vertex="1" parent="1">
          <mxGeometry x="-1236.642857142857" y="-1237.26" width="15.713911840580256" height="15.71" as="geometry" />
        </mxCell>
        <mxCell id="Zl_6zX65lW_YbLj7B-Cz-196" value="" style="rounded=0;whiteSpace=wrap;html=1;aspect=fixed;strokeWidth=0.5;strokeColor=#828282;fillColor=light-dark(#843c0b, #ededed);container=0;fontSize=15;" vertex="1" parent="1">
          <mxGeometry x="-1220.9285714285713" y="-1221.5453539381856" width="15.713911840580256" height="15.713911840580256" as="geometry" />
        </mxCell>
        <mxCell id="Zl_6zX65lW_YbLj7B-Cz-197" value="" style="rounded=0;whiteSpace=wrap;html=1;aspect=fixed;strokeWidth=0.5;strokeColor=#828282;fillColor=light-dark(#FFFFFF,#EDEDED);container=0;fontSize=15;" vertex="1" parent="1">
          <mxGeometry x="-1315.2142857142858" y="-1284.4017846460617" width="15.713911840580256" height="15.713911840580256" as="geometry" />
        </mxCell>
        <mxCell id="Zl_6zX65lW_YbLj7B-Cz-198" value="" style="rounded=0;whiteSpace=wrap;html=1;aspect=fixed;strokeWidth=0.5;strokeColor=#828282;fillColor=light-dark(#FFFFFF,#EDEDED);container=0;fontSize=15;" vertex="1" parent="1">
          <mxGeometry x="-1252.357142857143" y="-1300.115892323031" width="15.713911840580256" height="15.713911840580256" as="geometry" />
        </mxCell>
        <mxCell id="Zl_6zX65lW_YbLj7B-Cz-199" value="" style="rounded=0;whiteSpace=wrap;html=1;aspect=fixed;strokeWidth=0.5;strokeColor=#828282;fillColor=light-dark(#FFFFFF,#EDEDED);container=0;fontSize=15;" vertex="1" parent="1">
          <mxGeometry x="-1236.642857142857" y="-1300.115892323031" width="15.713911840580256" height="15.713911840580256" as="geometry" />
        </mxCell>
        <mxCell id="Zl_6zX65lW_YbLj7B-Cz-200" value="" style="rounded=0;whiteSpace=wrap;html=1;aspect=fixed;strokeWidth=0.5;strokeColor=#828282;fillColor=light-dark(#FFFFFF,#EDEDED);container=0;fontSize=15;" vertex="1" parent="1">
          <mxGeometry x="-1268.0714285714287" y="-1284.4017846460617" width="15.713911840580256" height="15.713911840580256" as="geometry" />
        </mxCell>
        <mxCell id="Zl_6zX65lW_YbLj7B-Cz-201" value="" style="rounded=0;whiteSpace=wrap;html=1;aspect=fixed;strokeWidth=0.5;strokeColor=#828282;fillColor=light-dark(#FFFFFF,#EDEDED);container=0;fontSize=15;" vertex="1" parent="1">
          <mxGeometry x="-1252.357142857143" y="-1284.4017846460617" width="15.713911840580256" height="15.713911840580256" as="geometry" />
        </mxCell>
        <mxCell id="Zl_6zX65lW_YbLj7B-Cz-202" value="" style="rounded=0;whiteSpace=wrap;html=1;aspect=fixed;strokeWidth=0.5;strokeColor=#828282;fillColor=light-dark(#FFFFFF,#EDEDED);container=0;fontSize=15;" vertex="1" parent="1">
          <mxGeometry x="-1236.642857142857" y="-1284.4017846460617" width="15.713911840580256" height="15.713911840580256" as="geometry" />
        </mxCell>
        <mxCell id="Zl_6zX65lW_YbLj7B-Cz-203" value="" style="rounded=0;whiteSpace=wrap;html=1;aspect=fixed;strokeWidth=0.5;strokeColor=#828282;fillColor=light-dark(#fafafa, #ededed);container=0;fontSize=15;" vertex="1" parent="1">
          <mxGeometry x="-1205.2142857142856" y="-1252.9735692921236" width="15.713911840580256" height="15.713911840580256" as="geometry" />
        </mxCell>
        <mxCell id="Zl_6zX65lW_YbLj7B-Cz-204" value="" style="rounded=0;whiteSpace=wrap;html=1;aspect=fixed;strokeWidth=0.5;strokeColor=#828282;fillColor=light-dark(#b7520f, #ededed);container=0;fontSize=15;" vertex="1" parent="1">
          <mxGeometry x="-1220.9285714285713" y="-1237.26" width="15.713911840580256" height="15.713911840580256" as="geometry" />
        </mxCell>
        <mxCell id="Zl_6zX65lW_YbLj7B-Cz-205" value="" style="rounded=0;whiteSpace=wrap;html=1;aspect=fixed;strokeWidth=0.5;strokeColor=#828282;fillColor=light-dark(#b7520f, #ededed);container=0;fontSize=15;" vertex="1" parent="1">
          <mxGeometry x="-1205.2142857142856" y="-1221.5453539381856" width="15.713911840580256" height="15.713911840580256" as="geometry" />
        </mxCell>
        <mxCell id="Zl_6zX65lW_YbLj7B-Cz-206" value="" style="rounded=0;whiteSpace=wrap;html=1;aspect=fixed;strokeWidth=0.5;strokeColor=#828282;fillColor=light-dark(#FFFFFF,#EDEDED);container=0;fontSize=15;" vertex="1" parent="1">
          <mxGeometry x="-1220.9285714285713" y="-1205.8312462612164" width="15.713911840580256" height="15.713911840580256" as="geometry" />
        </mxCell>
        <mxCell id="Zl_6zX65lW_YbLj7B-Cz-207" value="" style="rounded=0;whiteSpace=wrap;html=1;aspect=fixed;strokeWidth=0.5;strokeColor=#828282;fillColor=light-dark(#FFFFFF,#EDEDED);container=0;fontSize=15;" vertex="1" parent="1">
          <mxGeometry x="-1252.357142857143" y="-1205.8312462612164" width="15.713911840580256" height="15.713911840580256" as="geometry" />
        </mxCell>
        <mxCell id="Zl_6zX65lW_YbLj7B-Cz-208" value="" style="rounded=0;whiteSpace=wrap;html=1;aspect=fixed;strokeWidth=0.5;strokeColor=#828282;fillColor=light-dark(#FFFFFF,#EDEDED);container=0;fontSize=15;" vertex="1" parent="1">
          <mxGeometry x="-1236.642857142857" y="-1205.8312462612164" width="15.713911840580256" height="15.713911840580256" as="geometry" />
        </mxCell>
        <mxCell id="Zl_6zX65lW_YbLj7B-Cz-209" value="" style="rounded=0;whiteSpace=wrap;html=1;aspect=fixed;strokeWidth=0.5;strokeColor=#828282;fillColor=light-dark(#fafafa, #ededed);container=0;fontSize=15;" vertex="1" parent="1">
          <mxGeometry x="-1268.0714285714287" y="-1252.9735692921236" width="15.713911840580256" height="15.713911840580256" as="geometry" />
        </mxCell>
        <mxCell id="Zl_6zX65lW_YbLj7B-Cz-210" value="" style="rounded=0;whiteSpace=wrap;html=1;aspect=fixed;strokeWidth=0.5;strokeColor=#828282;fillColor=light-dark(#FFFFFF,#EDEDED);container=0;fontSize=15;" vertex="1" parent="1">
          <mxGeometry x="-1268.0714285714287" y="-1205.8312462612164" width="15.713911840580256" height="15.713911840580256" as="geometry" />
        </mxCell>
        <mxCell id="Zl_6zX65lW_YbLj7B-Cz-211" value="" style="rounded=0;whiteSpace=wrap;html=1;aspect=fixed;strokeWidth=0.5;strokeColor=#828282;fillColor=light-dark(#FFFFFF,#EDEDED);container=0;fontSize=15;" vertex="1" parent="1">
          <mxGeometry x="-1299.5" y="-1268.6876769690925" width="15.713911840580256" height="15.713911840580256" as="geometry" />
        </mxCell>
        <mxCell id="Zl_6zX65lW_YbLj7B-Cz-212" value="" style="rounded=0;whiteSpace=wrap;html=1;aspect=fixed;strokeWidth=0.5;strokeColor=#828282;fillColor=light-dark(#FFFFFF,#EDEDED);container=0;fontSize=15;" vertex="1" parent="1">
          <mxGeometry x="-1283.7857142857142" y="-1268.6876769690925" width="15.713911840580256" height="15.713911840580256" as="geometry" />
        </mxCell>
        <mxCell id="Zl_6zX65lW_YbLj7B-Cz-213" value="" style="rounded=0;whiteSpace=wrap;html=1;aspect=fixed;strokeWidth=0.5;strokeColor=#828282;fillColor=light-dark(#fafafa, #ededed);container=0;fontSize=15;" vertex="1" parent="1">
          <mxGeometry x="-1299.5" y="-1252.9735692921236" width="15.713911840580256" height="15.713911840580256" as="geometry" />
        </mxCell>
        <mxCell id="Zl_6zX65lW_YbLj7B-Cz-214" value="" style="rounded=0;whiteSpace=wrap;html=1;aspect=fixed;strokeWidth=0.5;strokeColor=#828282;fillColor=light-dark(#fafafa, #ededed);container=0;fontSize=15;" vertex="1" parent="1">
          <mxGeometry x="-1283.7857142857142" y="-1252.9735692921236" width="15.713911840580256" height="15.713911840580256" as="geometry" />
        </mxCell>
        <mxCell id="Zl_6zX65lW_YbLj7B-Cz-215" value="" style="rounded=0;whiteSpace=wrap;html=1;aspect=fixed;strokeWidth=0.5;strokeColor=#828282;fillColor=light-dark(#FFFFFF,#EDEDED);container=0;fontSize=15;" vertex="1" parent="1">
          <mxGeometry x="-1299.5" y="-1205.8312462612164" width="15.713911840580256" height="15.713911840580256" as="geometry" />
        </mxCell>
        <mxCell id="Zl_6zX65lW_YbLj7B-Cz-216" value="" style="rounded=0;whiteSpace=wrap;html=1;aspect=fixed;strokeWidth=0.5;strokeColor=#828282;fillColor=light-dark(#FFFFFF,#EDEDED);container=0;fontSize=15;" vertex="1" parent="1">
          <mxGeometry x="-1283.7857142857142" y="-1205.8312462612164" width="15.713911840580256" height="15.713911840580256" as="geometry" />
        </mxCell>
        <mxCell id="Zl_6zX65lW_YbLj7B-Cz-217" value="" style="rounded=0;whiteSpace=wrap;html=1;aspect=fixed;strokeWidth=0.5;strokeColor=#828282;fillColor=light-dark(#FFFFFF,#EDEDED);container=0;fontSize=15;" vertex="1" parent="1">
          <mxGeometry x="-1315.2142857142858" y="-1268.6876769690925" width="15.713911840580256" height="15.713911840580256" as="geometry" />
        </mxCell>
        <mxCell id="Zl_6zX65lW_YbLj7B-Cz-218" value="" style="rounded=0;whiteSpace=wrap;html=1;aspect=fixed;strokeWidth=0.5;strokeColor=#828282;fillColor=light-dark(#FFFFFF,#EDEDED);container=0;fontSize=15;" vertex="1" parent="1">
          <mxGeometry x="-1315.2142857142858" y="-1205.8312462612164" width="15.713911840580256" height="15.713911840580256" as="geometry" />
        </mxCell>
        <mxCell id="Zl_6zX65lW_YbLj7B-Cz-219" value="" style="rounded=0;whiteSpace=wrap;html=1;aspect=fixed;strokeWidth=0.5;strokeColor=#828282;fillColor=light-dark(#FFFFFF,#EDEDED);container=0;fontSize=15;" vertex="1" parent="1">
          <mxGeometry x="-1409.5" y="-1284.4017846460617" width="15.713911840580256" height="15.713911840580256" as="geometry" />
        </mxCell>
        <mxCell id="Zl_6zX65lW_YbLj7B-Cz-220" value="" style="rounded=0;whiteSpace=wrap;html=1;aspect=fixed;strokeWidth=0.5;strokeColor=#828282;fillColor=light-dark(#FFFFFF,#EDEDED);container=0;fontSize=15;" vertex="1" parent="1">
          <mxGeometry x="-1362.357142857143" y="-1300.115892323031" width="15.713911840580256" height="15.713911840580256" as="geometry" />
        </mxCell>
        <mxCell id="Zl_6zX65lW_YbLj7B-Cz-221" value="" style="rounded=0;whiteSpace=wrap;html=1;aspect=fixed;strokeWidth=0.5;strokeColor=#828282;fillColor=light-dark(#FFFFFF,#EDEDED);container=0;fontSize=15;" vertex="1" parent="1">
          <mxGeometry x="-1346.642857142857" y="-1300.115892323031" width="15.713911840580256" height="15.713911840580256" as="geometry" />
        </mxCell>
        <mxCell id="Zl_6zX65lW_YbLj7B-Cz-222" value="" style="rounded=0;whiteSpace=wrap;html=1;aspect=fixed;strokeWidth=0.5;strokeColor=#828282;fillColor=light-dark(#FFFFFF,#EDEDED);container=0;fontSize=15;" vertex="1" parent="1">
          <mxGeometry x="-1330.9285714285716" y="-1300.115892323031" width="15.713911840580256" height="15.713911840580256" as="geometry" />
        </mxCell>
        <mxCell id="Zl_6zX65lW_YbLj7B-Cz-223" value="" style="rounded=0;whiteSpace=wrap;html=1;aspect=fixed;strokeWidth=0.5;strokeColor=#828282;fillColor=light-dark(#FFFFFF,#EDEDED);container=0;fontSize=15;" vertex="1" parent="1">
          <mxGeometry x="-1378.0714285714284" y="-1284.4017846460617" width="15.713911840580256" height="15.713911840580256" as="geometry" />
        </mxCell>
        <mxCell id="Zl_6zX65lW_YbLj7B-Cz-224" value="" style="rounded=0;whiteSpace=wrap;html=1;aspect=fixed;strokeWidth=0.5;strokeColor=#828282;fillColor=light-dark(#FFFFFF,#EDEDED);container=0;fontSize=15;" vertex="1" parent="1">
          <mxGeometry x="-1330.9285714285716" y="-1284.4017846460617" width="15.713911840580256" height="15.713911840580256" as="geometry" />
        </mxCell>
        <mxCell id="Zl_6zX65lW_YbLj7B-Cz-225" value="" style="rounded=0;whiteSpace=wrap;html=1;aspect=fixed;strokeWidth=0.5;strokeColor=#828282;fillColor=light-dark(#FFFFFF,#EDEDED);container=0;fontSize=15;" vertex="1" parent="1">
          <mxGeometry x="-1346.642857142857" y="-1284.4017846460617" width="15.713911840580256" height="15.713911840580256" as="geometry" />
        </mxCell>
        <mxCell id="Zl_6zX65lW_YbLj7B-Cz-226" value="" style="rounded=0;whiteSpace=wrap;html=1;aspect=fixed;strokeWidth=0.5;strokeColor=#828282;fillColor=light-dark(#FFFFFF,#EDEDED);container=0;fontSize=15;" vertex="1" parent="1">
          <mxGeometry x="-1362.357142857143" y="-1284.4017846460617" width="15.713911840580256" height="15.713911840580256" as="geometry" />
        </mxCell>
        <mxCell id="Zl_6zX65lW_YbLj7B-Cz-227" value="" style="rounded=0;whiteSpace=wrap;html=1;aspect=fixed;strokeWidth=0.5;strokeColor=#828282;fillColor=light-dark(#FFFFFF,#EDEDED);container=0;fontSize=15;" vertex="1" parent="1">
          <mxGeometry x="-1409.5" y="-1268.6876769690925" width="15.713911840580256" height="15.713911840580256" as="geometry" />
        </mxCell>
        <mxCell id="Zl_6zX65lW_YbLj7B-Cz-228" value="" style="rounded=0;whiteSpace=wrap;html=1;aspect=fixed;strokeWidth=0.5;strokeColor=#828282;fillColor=light-dark(#FFFFFF,#EDEDED);container=0;fontSize=15;" vertex="1" parent="1">
          <mxGeometry x="-1409.5" y="-1252.9735692921236" width="15.713911840580256" height="15.713911840580256" as="geometry" />
        </mxCell>
        <mxCell id="Zl_6zX65lW_YbLj7B-Cz-229" value="" style="rounded=0;whiteSpace=wrap;html=1;aspect=fixed;strokeWidth=0.5;strokeColor=#828282;fillColor=light-dark(#fbe5d6, #ededed);container=0;fontSize=15;" vertex="1" parent="1">
          <mxGeometry x="-1409.5" y="-1221.5453539381856" width="15.713911840580256" height="15.713911840580256" as="geometry" />
        </mxCell>
        <mxCell id="Zl_6zX65lW_YbLj7B-Cz-230" value="" style="rounded=0;whiteSpace=wrap;html=1;aspect=fixed;strokeWidth=0.5;strokeColor=#828282;fillColor=light-dark(#FFFFFF,#EDEDED);container=0;fontSize=15;" vertex="1" parent="1">
          <mxGeometry x="-1409.5" y="-1205.8312462612164" width="15.713911840580256" height="15.713911840580256" as="geometry" />
        </mxCell>
        <mxCell id="Zl_6zX65lW_YbLj7B-Cz-231" value="" style="rounded=0;whiteSpace=wrap;html=1;aspect=fixed;fillColor=light-dark(#FFFFFF,#EDEDED);strokeColor=#828282;strokeWidth=0.5;container=0;fontSize=15;" vertex="1" parent="1">
          <mxGeometry x="-1393.7857142857142" y="-1252.9735692921236" width="15.713911840580256" height="15.713911840580256" as="geometry" />
        </mxCell>
        <mxCell id="Zl_6zX65lW_YbLj7B-Cz-232" value="" style="rounded=0;whiteSpace=wrap;html=1;aspect=fixed;strokeWidth=0.5;strokeColor=#828282;fillColor=light-dark(#FFFFFF,#EDEDED);container=0;fontSize=15;" vertex="1" parent="1">
          <mxGeometry x="-1393.7857142857142" y="-1268.6876769690925" width="15.713911840580256" height="15.713911840580256" as="geometry" />
        </mxCell>
        <mxCell id="Zl_6zX65lW_YbLj7B-Cz-233" value="" style="rounded=0;whiteSpace=wrap;html=1;aspect=fixed;strokeWidth=0.5;strokeColor=#828282;fillColor=light-dark(#FFFFFF,#EDEDED);container=0;fontSize=15;" vertex="1" parent="1">
          <mxGeometry x="-1378.0714285714284" y="-1268.6876769690925" width="15.713911840580256" height="15.713911840580256" as="geometry" />
        </mxCell>
        <mxCell id="Zl_6zX65lW_YbLj7B-Cz-234" value="" style="rounded=0;whiteSpace=wrap;html=1;aspect=fixed;strokeWidth=0.5;strokeColor=#828282;fillColor=light-dark(#FFFFFF,#EDEDED);container=0;fontSize=15;" vertex="1" parent="1">
          <mxGeometry x="-1362.357142857143" y="-1268.6876769690925" width="15.713911840580256" height="15.713911840580256" as="geometry" />
        </mxCell>
        <mxCell id="Zl_6zX65lW_YbLj7B-Cz-235" value="" style="rounded=0;whiteSpace=wrap;html=1;aspect=fixed;strokeWidth=0.5;strokeColor=#828282;fillColor=light-dark(#FFFFFF,#EDEDED);container=0;fontSize=15;" vertex="1" parent="1">
          <mxGeometry x="-1346.642857142857" y="-1268.6876769690925" width="15.713911840580256" height="15.713911840580256" as="geometry" />
        </mxCell>
        <mxCell id="Zl_6zX65lW_YbLj7B-Cz-236" value="" style="rounded=0;whiteSpace=wrap;html=1;aspect=fixed;strokeWidth=0.5;strokeColor=#828282;fillColor=light-dark(#FFFFFF,#EDEDED);container=0;fontSize=15;" vertex="1" parent="1">
          <mxGeometry x="-1330.9285714285716" y="-1268.6876769690925" width="15.713911840580256" height="15.713911840580256" as="geometry" />
        </mxCell>
        <mxCell id="Zl_6zX65lW_YbLj7B-Cz-237" value="" style="rounded=0;whiteSpace=wrap;html=1;aspect=fixed;strokeWidth=0.5;strokeColor=#828282;fillColor=light-dark(#FFFFFF,#EDEDED);container=0;fontSize=15;" vertex="1" parent="1">
          <mxGeometry x="-1378.0714285714284" y="-1252.9735692921236" width="15.713911840580256" height="15.713911840580256" as="geometry" />
        </mxCell>
        <mxCell id="Zl_6zX65lW_YbLj7B-Cz-238" value="" style="rounded=0;whiteSpace=wrap;html=1;aspect=fixed;strokeWidth=0.5;strokeColor=#828282;fillColor=light-dark(#FFFFFF,#EDEDED);container=0;fontSize=15;" vertex="1" parent="1">
          <mxGeometry x="-1362.357142857143" y="-1252.9735692921236" width="15.713911840580256" height="15.713911840580256" as="geometry" />
        </mxCell>
        <mxCell id="Zl_6zX65lW_YbLj7B-Cz-239" value="" style="rounded=0;whiteSpace=wrap;html=1;aspect=fixed;strokeWidth=0.5;strokeColor=#828282;fillColor=light-dark(#FFFFFF,#EDEDED);container=0;fontSize=15;" vertex="1" parent="1">
          <mxGeometry x="-1330.9285714285716" y="-1252.9735692921236" width="15.713911840580256" height="15.713911840580256" as="geometry" />
        </mxCell>
        <mxCell id="Zl_6zX65lW_YbLj7B-Cz-240" value="" style="rounded=0;whiteSpace=wrap;html=1;aspect=fixed;strokeWidth=0.5;strokeColor=#828282;fillColor=light-dark(#843c0b, #ededed);container=0;fontSize=15;" vertex="1" parent="1">
          <mxGeometry x="-1362.357142857143" y="-1237.26" width="15.713911840580256" height="15.71" as="geometry" />
        </mxCell>
        <mxCell id="Zl_6zX65lW_YbLj7B-Cz-241" value="" style="rounded=0;whiteSpace=wrap;html=1;aspect=fixed;fillColor=light-dark(#ac4d0e, #5e3206);strokeColor=#828282;strokeWidth=0.5;container=0;fontSize=15;" vertex="1" parent="1">
          <mxGeometry x="-1346.642857142857" y="-1221.5453539381856" width="15.713911840580256" height="15.713911840580256" as="geometry" />
        </mxCell>
        <mxCell id="Zl_6zX65lW_YbLj7B-Cz-242" value="" style="rounded=0;whiteSpace=wrap;html=1;aspect=fixed;fillColor=light-dark(#FFFFFF,#EDEDED);strokeColor=#828282;strokeWidth=0.5;container=0;fontSize=15;" vertex="1" parent="1">
          <mxGeometry x="-1330.9285714285716" y="-1205.8312462612164" width="15.713911840580256" height="15.713911840580256" as="geometry" />
        </mxCell>
        <mxCell id="Zl_6zX65lW_YbLj7B-Cz-243" value="" style="rounded=0;whiteSpace=wrap;html=1;aspect=fixed;strokeWidth=0.5;strokeColor=#828282;fillColor=light-dark(#c45912, #ededed);container=0;fontSize=15;" vertex="1" parent="1">
          <mxGeometry x="-1346.642857142857" y="-1237.26" width="15.713911840580256" height="15.713911840580256" as="geometry" />
        </mxCell>
        <mxCell id="Zl_6zX65lW_YbLj7B-Cz-244" value="" style="rounded=0;whiteSpace=wrap;html=1;aspect=fixed;fillColor=light-dark(#FFFFFF,#EDEDED);strokeColor=#828282;strokeWidth=0.5;container=0;fontSize=15;" vertex="1" parent="1">
          <mxGeometry x="-1362.357142857143" y="-1205.8312462612164" width="15.713911840580256" height="15.713911840580256" as="geometry" />
        </mxCell>
        <mxCell id="Zl_6zX65lW_YbLj7B-Cz-245" value="" style="rounded=0;whiteSpace=wrap;html=1;aspect=fixed;strokeWidth=0.5;strokeColor=#828282;fillColor=light-dark(#FFFFFF,#EDEDED);container=0;fontSize=15;" vertex="1" parent="1">
          <mxGeometry x="-1346.642857142857" y="-1252.9735692921236" width="15.713911840580256" height="15.713911840580256" as="geometry" />
        </mxCell>
        <mxCell id="Zl_6zX65lW_YbLj7B-Cz-246" value="" style="rounded=0;whiteSpace=wrap;html=1;aspect=fixed;strokeWidth=0.5;strokeColor=#828282;fillColor=light-dark(#FFFFFF,#EDEDED);container=0;fontSize=15;" vertex="1" parent="1">
          <mxGeometry x="-1346.642857142857" y="-1205.8312462612164" width="15.713911840580256" height="15.713911840580256" as="geometry" />
        </mxCell>
        <mxCell id="Zl_6zX65lW_YbLj7B-Cz-247" value="" style="rounded=0;whiteSpace=wrap;html=1;aspect=fixed;strokeWidth=0.5;strokeColor=#828282;fillColor=light-dark(#FFFFFF,#EDEDED);container=0;fontSize=15;" vertex="1" parent="1">
          <mxGeometry x="-1393.7857142857142" y="-1205.8312462612164" width="15.713911840580256" height="15.713911840580256" as="geometry" />
        </mxCell>
        <mxCell id="Zl_6zX65lW_YbLj7B-Cz-248" value="" style="rounded=0;whiteSpace=wrap;html=1;aspect=fixed;strokeWidth=0.5;strokeColor=#828282;fillColor=light-dark(#FFFFFF,#EDEDED);container=0;fontSize=15;" vertex="1" parent="1">
          <mxGeometry x="-1378.0714285714284" y="-1205.8312462612164" width="15.713911840580256" height="15.713911840580256" as="geometry" />
        </mxCell>
        <mxCell id="Zl_6zX65lW_YbLj7B-Cz-249" value="" style="rounded=0;whiteSpace=wrap;html=1;aspect=fixed;strokeWidth=0.5;strokeColor=#828282;fillColor=light-dark(#fbe5d6, #ededed);container=0;fontSize=15;" vertex="1" parent="1">
          <mxGeometry x="-1393.7857142857142" y="-1237.26" width="15.713911840580256" height="15.71" as="geometry" />
        </mxCell>
        <mxCell id="Zl_6zX65lW_YbLj7B-Cz-250" value="" style="endArrow=none;html=1;rounded=0;entryX=1.032;entryY=0;entryDx=0;entryDy=0;exitX=-0.032;exitY=0;exitDx=0;exitDy=0;exitPerimeter=0;entryPerimeter=0;fontSize=15;" edge="1" parent="1" source="Zl_6zX65lW_YbLj7B-Cz-162" target="Zl_6zX65lW_YbLj7B-Cz-179">
          <mxGeometry width="50" height="50" relative="1" as="geometry">
            <mxPoint x="-1401.642857142857" y="-1181.8829461615155" as="sourcePoint" />
            <mxPoint x="-1401.642857142857" y="-1307.5958075772683" as="targetPoint" />
          </mxGeometry>
        </mxCell>
        <mxCell id="Zl_6zX65lW_YbLj7B-Cz-251" value="" style="rounded=0;whiteSpace=wrap;html=1;fillColor=#ffe6cc;strokeColor=#828282;aspect=fixed;strokeWidth=0.5;container=0;fontSize=15;" vertex="1" parent="1">
          <mxGeometry x="-1299.5" y="-1237.26" width="15.71" height="15.713911840580256" as="geometry" />
        </mxCell>
        <mxCell id="Zl_6zX65lW_YbLj7B-Cz-252" value="" style="rounded=0;whiteSpace=wrap;html=1;aspect=fixed;strokeWidth=0.5;strokeColor=#828282;fillColor=light-dark(#c55a11, #ededed);container=0;fontSize=15;" vertex="1" parent="1">
          <mxGeometry x="-1252.507142857143" y="-1221.5453539381856" width="15.713911840580256" height="15.71" as="geometry" />
        </mxCell>
        <mxCell id="Zl_6zX65lW_YbLj7B-Cz-253" value="" style="rounded=0;whiteSpace=wrap;html=1;aspect=fixed;strokeWidth=0.5;strokeColor=#828282;fillColor=light-dark(#f8cbad, #EDEDED);container=0;fontSize=15;" vertex="1" parent="1">
          <mxGeometry x="-1268.0714285714287" y="-1237.26" width="15.713911840580256" height="15.71" as="geometry" />
        </mxCell>
        <mxCell id="Zl_6zX65lW_YbLj7B-Cz-254" value="" style="rounded=0;whiteSpace=wrap;html=1;aspect=fixed;strokeWidth=0.5;strokeColor=#828282;fillColor=light-dark(#fbe5d6, #ededed);container=0;fontSize=15;" vertex="1" parent="1">
          <mxGeometry x="-1299.5" y="-1221.5453539381856" width="15.713911840580256" height="15.713911840580256" as="geometry" />
        </mxCell>
        <mxCell id="Zl_6zX65lW_YbLj7B-Cz-255" value="" style="rounded=0;whiteSpace=wrap;html=1;aspect=fixed;strokeWidth=0.5;strokeColor=#828282;fillColor=light-dark(#fbe5d6, #ededed);container=0;fontSize=15;" vertex="1" parent="1">
          <mxGeometry x="-1283.7857142857142" y="-1221.5453539381856" width="15.713911840580256" height="15.713911840580256" as="geometry" />
        </mxCell>
        <mxCell id="Zl_6zX65lW_YbLj7B-Cz-256" value="" style="rounded=0;whiteSpace=wrap;html=1;aspect=fixed;strokeWidth=0.5;strokeColor=#828282;fillColor=light-dark(#fbe5d6, #ededed);container=0;fontSize=15;" vertex="1" parent="1">
          <mxGeometry x="-1315.2142857142858" y="-1221.5453539381856" width="15.713911840580256" height="15.713911840580256" as="geometry" />
        </mxCell>
        <mxCell id="Zl_6zX65lW_YbLj7B-Cz-257" value="" style="rounded=0;whiteSpace=wrap;html=1;aspect=fixed;fillColor=#ffcc99;strokeColor=#828282;strokeWidth=0.5;container=0;fontSize=15;" vertex="1" parent="1">
          <mxGeometry x="-1268.0685714285714" y="-1221.5453539381856" width="15.713911840580256" height="15.71" as="geometry" />
        </mxCell>
        <mxCell id="Zl_6zX65lW_YbLj7B-Cz-258" value="" style="rounded=0;whiteSpace=wrap;html=1;aspect=fixed;strokeWidth=0.5;strokeColor=#828282;fillColor=light-dark(#843c0b, #ededed);container=0;fontSize=15;" vertex="1" parent="1">
          <mxGeometry x="-1205.2185714285713" y="-1205.9053539381855" width="15.713911840580256" height="15.713911840580256" as="geometry" />
        </mxCell>
        <mxCell id="Zl_6zX65lW_YbLj7B-Cz-259" value="" style="endArrow=none;html=1;rounded=0;entryX=1;entryY=0;entryDx=0;entryDy=0;exitX=1;exitY=1;exitDx=0;exitDy=0;fontSize=15;" edge="1" parent="1" target="Zl_6zX65lW_YbLj7B-Cz-179">
          <mxGeometry width="50" height="50" relative="1" as="geometry">
            <mxPoint x="-1189.500373873706" y="-1190.1173344206359" as="sourcePoint" />
            <mxPoint x="-1401.642857142857" y="-1181.8829461615155" as="targetPoint" />
          </mxGeometry>
        </mxCell>
        <mxCell id="Zl_6zX65lW_YbLj7B-Cz-260" value="" style="endArrow=none;html=1;rounded=0;exitX=1.032;exitY=1.005;exitDx=0;exitDy=0;exitPerimeter=0;fontSize=15;" edge="1" parent="1" source="Zl_6zX65lW_YbLj7B-Cz-258">
          <mxGeometry width="50" height="50" relative="1" as="geometry">
            <mxPoint x="-1189.500373873706" y="-1190.1173344206359" as="sourcePoint" />
            <mxPoint x="-1409.5" y="-1189.74" as="targetPoint" />
          </mxGeometry>
        </mxCell>
        <mxCell id="Zl_6zX65lW_YbLj7B-Cz-261" value="" style="rounded=0;whiteSpace=wrap;html=1;aspect=fixed;strokeWidth=0.5;strokeColor=#828282;fillColor=light-dark(#f8cbad, #ededed);fontSize=15;" vertex="1" parent="1">
          <mxGeometry x="-1378.07" y="-1237.26" width="15.713911840580256" height="15.71" as="geometry" />
        </mxCell>
        <mxCell id="Zl_6zX65lW_YbLj7B-Cz-262" value="" style="rounded=0;whiteSpace=wrap;html=1;aspect=fixed;fillColor=light-dark(#FFFFFF,#EDEDED);strokeColor=#828282;strokeWidth=0.5;container=0;fontSize=15;" vertex="1" parent="1">
          <mxGeometry x="-1393.7857142857142" y="-1221.5453539381856" width="15.713911840580256" height="15.713911840580256" as="geometry" />
        </mxCell>
        <mxCell id="Zl_6zX65lW_YbLj7B-Cz-263" value="" style="rounded=0;whiteSpace=wrap;html=1;aspect=fixed;strokeWidth=0.5;strokeColor=#828282;fillColor=light-dark(#ec6514, #ededed);fontSize=15;" vertex="1" parent="1">
          <mxGeometry x="-1362.45" y="-1221.5453539381856" width="15.713911840580256" height="15.71" as="geometry" />
        </mxCell>
        <mxCell id="Zl_6zX65lW_YbLj7B-Cz-264" value="" style="rounded=0;whiteSpace=wrap;html=1;aspect=fixed;strokeWidth=0.5;strokeColor=#828282;fillColor=light-dark(#f09050, #ededed);fontSize=15;" vertex="1" parent="1">
          <mxGeometry x="-1378.07" y="-1221.5453539381856" width="15.713911840580256" height="15.71" as="geometry" />
        </mxCell>
        <mxCell id="Zl_6zX65lW_YbLj7B-Cz-265" value="" style="rounded=0;whiteSpace=wrap;html=1;aspect=fixed;strokeWidth=0.5;strokeColor=#828282;fillColor=light-dark(#fef3eb, #ededed);fontSize=15;" vertex="1" parent="1">
          <mxGeometry x="-1409.45" y="-1237.26" width="15.713911840580256" height="15.71" as="geometry" />
        </mxCell>
        <mxCell id="Zl_6zX65lW_YbLj7B-Cz-266" value="" style="endArrow=none;html=1;rounded=0;entryX=0;entryY=0;entryDx=0;entryDy=0;exitX=0;exitY=1.056;exitDx=0;exitDy=0;exitPerimeter=0;fontSize=15;" edge="1" parent="1" source="Zl_6zX65lW_YbLj7B-Cz-230" target="Zl_6zX65lW_YbLj7B-Cz-162">
          <mxGeometry width="50" height="50" relative="1" as="geometry">
            <mxPoint x="-1456.642857142857" y="-1265.1677168494516" as="sourcePoint" />
            <mxPoint x="-1417.357142857143" y="-1304.4529860418743" as="targetPoint" />
          </mxGeometry>
        </mxCell>
        <mxCell id="Zl_6zX65lW_YbLj7B-Cz-267" value="" style="rounded=0;whiteSpace=wrap;html=1;aspect=fixed;strokeWidth=0.5;strokeColor=#828282;fillColor=light-dark(#fef3eb, #ededed);fontSize=15;" vertex="1" parent="1">
          <mxGeometry x="-1330.93" y="-1221.5453539381856" width="15.713911840580256" height="15.71" as="geometry" />
        </mxCell>
        <mxCell id="Zl_6zX65lW_YbLj7B-Cz-268" value="" style="endArrow=none;html=1;rounded=0;entryX=0;entryY=0;entryDx=0;entryDy=0;exitX=1;exitY=1;exitDx=0;exitDy=0;fontSize=15;" edge="1" parent="1" source="Zl_6zX65lW_YbLj7B-Cz-242" target="Zl_6zX65lW_YbLj7B-Cz-157">
          <mxGeometry width="50" height="50" relative="1" as="geometry">
            <mxPoint x="-1330.9285714285716" y="-1178.7401246261215" as="sourcePoint" />
            <mxPoint x="-1401.642857142857" y="-1307.5958075772683" as="targetPoint" />
          </mxGeometry>
        </mxCell>
        <mxCell id="Zl_6zX65lW_YbLj7B-Cz-269" value="" style="rounded=0;whiteSpace=wrap;html=1;aspect=fixed;strokeWidth=0.5;strokeColor=#828282;fillColor=light-dark(#ec6514, #ededed);fontSize=15;" vertex="1" parent="1">
          <mxGeometry x="-1252.36" y="-1237.26" width="15.713911840580256" height="15.71" as="geometry" />
        </mxCell>
        <mxCell id="Zl_6zX65lW_YbLj7B-Cz-270" value="" style="rounded=0;whiteSpace=wrap;html=1;aspect=fixed;strokeWidth=0.5;strokeColor=#828282;fillColor=light-dark(#ec6514, #ededed);fontSize=15;" vertex="1" parent="1">
          <mxGeometry x="-1236.64" y="-1221.5453539381856" width="15.713911840580256" height="15.71" as="geometry" />
        </mxCell>
        <mxCell id="Zl_6zX65lW_YbLj7B-Cz-271" value="" style="rounded=0;whiteSpace=wrap;html=1;aspect=fixed;fillColor=light-dark(#f09050, #5e3206);strokeColor=#828282;strokeWidth=0.5;fontSize=15;" vertex="1" parent="1">
          <mxGeometry x="-1283.79" y="-1237.26" width="15.713911840580256" height="15.71" as="geometry" />
        </mxCell>
        <mxCell id="Zl_6zX65lW_YbLj7B-Cz-272" value="&lt;font&gt;Aspect-guilded&amp;nbsp;&lt;/font&gt;&lt;div&gt;&lt;font&gt;Dependency Matrix&lt;/font&gt;&lt;/div&gt;" style="text;html=1;align=center;verticalAlign=middle;whiteSpace=wrap;rounded=0;fontSize=15;" vertex="1" parent="1">
          <mxGeometry x="-1486.78" y="-563.53" width="140" height="30" as="geometry" />
        </mxCell>
        <mxCell id="Zl_6zX65lW_YbLj7B-Cz-273" value="" style="rounded=1;whiteSpace=wrap;html=1;dashed=1;fillColor=none;container=0;fontSize=15;" vertex="1" parent="1">
          <mxGeometry x="-1616.78" y="-545.38" width="60" height="113" as="geometry" />
        </mxCell>
        <mxCell id="Zl_6zX65lW_YbLj7B-Cz-274" value="$$\sigma$$" style="ellipse;aspect=fixed;shadow=0;rotation=0;html=1;fontSize=15;" vertex="1" parent="1">
          <mxGeometry x="-1271.745" y="-1680.0049999999999" width="20" height="20" as="geometry" />
        </mxCell>
        <mxCell id="Zl_6zX65lW_YbLj7B-Cz-275" value="" style="endArrow=block;html=1;rounded=0;exitX=0.5;exitY=0;exitDx=0;exitDy=0;entryX=1;entryY=0.5;entryDx=0;entryDy=0;endFill=1;fontSize=15;" edge="1" parent="1" source="Zl_6zX65lW_YbLj7B-Cz-277" target="Zl_6zX65lW_YbLj7B-Cz-274">
          <mxGeometry width="50" height="50" relative="1" as="geometry">
            <mxPoint x="-1121.01" y="-1689.66" as="sourcePoint" />
            <mxPoint x="-1141.01" y="-1709.66" as="targetPoint" />
            <Array as="points">
              <mxPoint x="-1094.01" y="-1669.66" />
            </Array>
          </mxGeometry>
        </mxCell>
        <mxCell id="Zl_6zX65lW_YbLj7B-Cz-276" value="" style="endArrow=block;html=1;rounded=0;exitX=0;exitY=0.5;exitDx=0;exitDy=0;endFill=1;entryX=1;entryY=0.5;entryDx=0;entryDy=0;fontSize=15;" edge="1" parent="1" source="Zl_6zX65lW_YbLj7B-Cz-277" target="Zl_6zX65lW_YbLj7B-Cz-279">
          <mxGeometry width="50" height="50" relative="1" as="geometry">
            <mxPoint x="-1443.8149999999998" y="-1679.49" as="sourcePoint" />
            <mxPoint x="-1351.01" y="-1663.66" as="targetPoint" />
          </mxGeometry>
        </mxCell>
        <mxCell id="Zl_6zX65lW_YbLj7B-Cz-277" value="&lt;font face=&quot;Times New Roman&quot;&gt;&lt;span&gt;$$h^{TA}$$&lt;/span&gt;&lt;/font&gt;" style="rounded=0;whiteSpace=wrap;html=1;aspect=fixed;fillColor=#e1d5e7;strokeColor=#9673a6;fontSize=15;" vertex="1" parent="1">
          <mxGeometry x="-1118.99" y="-1633.6200000000001" width="50" height="25" as="geometry" />
        </mxCell>
        <mxCell id="Zl_6zX65lW_YbLj7B-Cz-278" value="&lt;font face=&quot;Times New Roman&quot;&gt;&lt;span&gt;$$h^{VA}$$&lt;/span&gt;&lt;/font&gt;" style="rounded=0;whiteSpace=wrap;html=1;aspect=fixed;fillColor=#ffe6cc;strokeColor=#d79b00;fontSize=15;" vertex="1" parent="1">
          <mxGeometry x="-1477.5" y="-1633.6200000000001" width="50" height="25" as="geometry" />
        </mxCell>
        <mxCell id="Zl_6zX65lW_YbLj7B-Cz-279" value="" style="shape=sumEllipse;perimeter=ellipsePerimeter;whiteSpace=wrap;html=1;backgroundOutline=1;aspect=fixed;fontSize=15;" vertex="1" parent="1">
          <mxGeometry x="-1272.26" y="-1631.1200000000001" width="20" height="20" as="geometry" />
        </mxCell>
        <mxCell id="Zl_6zX65lW_YbLj7B-Cz-280" value="" style="endArrow=block;html=1;rounded=0;exitX=1;exitY=0.5;exitDx=0;exitDy=0;endFill=1;entryX=0;entryY=0.5;entryDx=0;entryDy=0;fontSize=15;" edge="1" parent="1" source="Zl_6zX65lW_YbLj7B-Cz-278" target="Zl_6zX65lW_YbLj7B-Cz-279">
          <mxGeometry width="50" height="50" relative="1" as="geometry">
            <mxPoint x="-1443.01" y="-1623.66" as="sourcePoint" />
            <mxPoint x="-1341.01" y="-1653.66" as="targetPoint" />
          </mxGeometry>
        </mxCell>
        <mxCell id="Zl_6zX65lW_YbLj7B-Cz-281" value="" style="endArrow=block;html=1;rounded=0;exitX=0.5;exitY=0;exitDx=0;exitDy=0;entryX=0;entryY=0.5;entryDx=0;entryDy=0;endFill=1;fontSize=15;" edge="1" parent="1" source="Zl_6zX65lW_YbLj7B-Cz-278" target="Zl_6zX65lW_YbLj7B-Cz-274">
          <mxGeometry width="50" height="50" relative="1" as="geometry">
            <mxPoint x="-1084.01" y="-1609.66" as="sourcePoint" />
            <mxPoint x="-1242.01" y="-1690.66" as="targetPoint" />
            <Array as="points">
              <mxPoint x="-1453.01" y="-1669.66" />
            </Array>
          </mxGeometry>
        </mxCell>
        <mxCell id="Zl_6zX65lW_YbLj7B-Cz-282" value="" style="endArrow=classic;html=1;rounded=0;exitX=0.5;exitY=0;exitDx=0;exitDy=0;entryX=0.5;entryY=1;entryDx=0;entryDy=0;fontSize=15;" edge="1" parent="1" source="Zl_6zX65lW_YbLj7B-Cz-279" target="Zl_6zX65lW_YbLj7B-Cz-274">
          <mxGeometry width="50" height="50" relative="1" as="geometry">
            <mxPoint x="-1401.01" y="-1669.66" as="sourcePoint" />
            <mxPoint x="-1351.01" y="-1719.66" as="targetPoint" />
          </mxGeometry>
        </mxCell>
        <mxCell id="Zl_6zX65lW_YbLj7B-Cz-283" value="$$f$$" style="ellipse;aspect=fixed;shadow=0;rotation=0;html=1;fontSize=15;" vertex="1" parent="1">
          <mxGeometry x="-1462.5049999999999" y="-1590.6649999999997" width="20" height="20" as="geometry" />
        </mxCell>
        <mxCell id="Zl_6zX65lW_YbLj7B-Cz-284" value="" style="endArrow=block;html=1;rounded=0;endFill=1;exitX=0.5;exitY=0;exitDx=0;exitDy=0;entryX=0.5;entryY=1;entryDx=0;entryDy=0;fontSize=15;" edge="1" parent="1" source="Zl_6zX65lW_YbLj7B-Cz-283" target="Zl_6zX65lW_YbLj7B-Cz-278">
          <mxGeometry width="50" height="50" relative="1" as="geometry">
            <mxPoint x="-1443.01" y="-1539.66" as="sourcePoint" />
            <mxPoint x="-1442.01" y="-1553.66" as="targetPoint" />
          </mxGeometry>
        </mxCell>
        <mxCell id="Zl_6zX65lW_YbLj7B-Cz-285" value="$$f$$" style="ellipse;aspect=fixed;shadow=0;rotation=0;html=1;fontSize=15;" vertex="1" parent="1">
          <mxGeometry x="-1104.1349999999998" y="-1590.4349999999997" width="20" height="20" as="geometry" />
        </mxCell>
        <mxCell id="Zl_6zX65lW_YbLj7B-Cz-286" value="" style="endArrow=block;html=1;rounded=0;endFill=1;exitX=0.5;exitY=0;exitDx=0;exitDy=0;entryX=0.5;entryY=1;entryDx=0;entryDy=0;fontSize=15;" edge="1" parent="1" source="Zl_6zX65lW_YbLj7B-Cz-285" target="Zl_6zX65lW_YbLj7B-Cz-277">
          <mxGeometry width="50" height="50" relative="1" as="geometry">
            <mxPoint x="-1084.6399999999999" y="-1539.43" as="sourcePoint" />
            <mxPoint x="-1093.6399999999999" y="-1608.43" as="targetPoint" />
          </mxGeometry>
        </mxCell>
        <mxCell id="Zl_6zX65lW_YbLj7B-Cz-287" value="Average Pooling" style="text;html=1;align=center;verticalAlign=middle;whiteSpace=wrap;rounded=0;fontSize=15;" vertex="1" parent="1">
          <mxGeometry x="-1440.97" y="-1595.43" width="60" height="30" as="geometry" />
        </mxCell>
        <mxCell id="Zl_6zX65lW_YbLj7B-Cz-288" value="Average Pooling" style="text;html=1;align=center;verticalAlign=middle;whiteSpace=wrap;rounded=0;fontSize=15;" vertex="1" parent="1">
          <mxGeometry x="-1069.75" y="-1597.6200000000001" width="60" height="30" as="geometry" />
        </mxCell>
        <mxCell id="Zl_6zX65lW_YbLj7B-Cz-289" value="Multi-Head Self-Attention" style="rounded=1;whiteSpace=wrap;html=1;fontSize=15;" vertex="1" parent="1">
          <mxGeometry x="-1612.5" y="-163.93000000000004" width="224" height="45" as="geometry" />
        </mxCell>
        <mxCell id="Zl_6zX65lW_YbLj7B-Cz-290" value="Fully-Connection" style="rounded=1;whiteSpace=wrap;html=1;fontSize=15;" vertex="1" parent="1">
          <mxGeometry x="-1612.5" y="-235.70000000000002" width="224" height="45" as="geometry" />
        </mxCell>
        <mxCell id="Zl_6zX65lW_YbLj7B-Cz-291" value="" style="endArrow=block;html=1;rounded=0;exitX=0.5;exitY=0;exitDx=0;exitDy=0;entryX=0.5;entryY=1;entryDx=0;entryDy=0;endFill=1;fontSize=15;" edge="1" parent="1" source="Zl_6zX65lW_YbLj7B-Cz-289" target="Zl_6zX65lW_YbLj7B-Cz-290">
          <mxGeometry width="50" height="50" relative="1" as="geometry">
            <mxPoint x="-1659" y="-136.57000000000002" as="sourcePoint" />
            <mxPoint x="-1659" y="-196.57000000000002" as="targetPoint" />
          </mxGeometry>
        </mxCell>
        <mxCell id="Zl_6zX65lW_YbLj7B-Cz-292" value="" style="endArrow=block;html=1;rounded=0;entryX=0;entryY=0.5;entryDx=0;entryDy=0;endFill=1;fontSize=15;" edge="1" parent="1" target="Zl_6zX65lW_YbLj7B-Cz-294">
          <mxGeometry width="50" height="50" relative="1" as="geometry">
            <mxPoint x="-1500" y="-178.47" as="sourcePoint" />
            <mxPoint x="-1509.9799999999968" y="-307.09000000000003" as="targetPoint" />
            <Array as="points">
              <mxPoint x="-1629" y="-178.47" />
              <mxPoint x="-1629" y="-265.47" />
            </Array>
          </mxGeometry>
        </mxCell>
        <mxCell id="Zl_6zX65lW_YbLj7B-Cz-293" value="" style="endArrow=block;html=1;rounded=0;exitX=0.5;exitY=0;exitDx=0;exitDy=0;entryX=0.5;entryY=1;entryDx=0;entryDy=0;endFill=1;fontSize=15;" edge="1" parent="1" source="Zl_6zX65lW_YbLj7B-Cz-290" target="Zl_6zX65lW_YbLj7B-Cz-294">
          <mxGeometry width="50" height="50" relative="1" as="geometry">
            <mxPoint x="-1500" y="-235.47" as="sourcePoint" />
            <mxPoint x="-1500.5" y="-337.57000000000005" as="targetPoint" />
          </mxGeometry>
        </mxCell>
        <mxCell id="Zl_6zX65lW_YbLj7B-Cz-294" value="" style="shape=orEllipse;perimeter=ellipsePerimeter;whiteSpace=wrap;html=1;backgroundOutline=1;aspect=fixed;fontSize=15;" vertex="1" parent="1">
          <mxGeometry x="-1509.98" y="-275.22" width="20" height="20" as="geometry" />
        </mxCell>
      </root>
    </mxGraphModel>
  </diagram>
</mxfile>
